<svg class="w-full h-full object-contain filter drop-shadow-sm" viewBox="0 0 1000 600" style="width: 100%; height: 100%;" xmlns="http://www.w3.org/2000/svg"><rect width="1000" height="600" fill="transparent" stroke-width="1px" fill-opacity="1" stroke-opacity="1"></rect><g fill="rgb(0, 0, 0)" stroke-width="1px" fill-opacity="1" stroke-opacity="1"><path class="state transition-colors duration-200 cursor-pointer" d="M515.299,88.585L516.667,89.564L516.523,92.719L514.363,90.706ZM507.74,59.463L508.532,60.057L509.396,58.385L510.404,58.493L510.98,60.218L512.204,60.596L512.923,58.978L514.147,59.787L511.628,62.592L512.491,63.401L510.764,64.157L511.052,65.938L512.132,65.344L514.723,66.695L513.931,67.775L511.196,67.073L509.756,67.451L506.66,66.155L504.86,66.641L506.588,64.859L506.372,59.895ZM412.344,22.491L413.423,24.469L413.207,26.179L414.863,26.179L416.015,27.837L413.999,28.426L411.264,27.302L407.088,28.158L407.376,25.752L409.464,25.431L409.176,22.812L410.472,20.462L411.624,20.088ZM414.143,19.447L417.527,21.156L420.119,20.035L422.063,20.675L425.447,18.38L428.543,19.02L430.127,22.598L429.263,24.576L427.751,24.308L426.383,26.607L421.559,29.817L417.383,27.73L413.999,25.377L411.984,18.753L412.488,17.472ZM507.38,22.759L505.652,24.469L502.556,26.019L504.212,24.041L504.788,24.629L507.092,22.652L511.7,15.658L510.98,18.326ZM446.614,15.711L447.19,18.967L446.758,20.569L445.102,17.739L444.742,15.551ZM530.995,104.06L530.923,104.005L530.923,104.224L530.923,262.461L460.798,263.671L390.672,262.461L390.672,76.918L393.408,78.49L393.768,80.93L394.776,80.767L394.128,76.539L398.088,77.948L399.6,79.899L399.816,81.797L400.968,81.309L400.32,78.381L398.52,75.781L403.2,76.81L405.576,75.077L402.552,76.16L400.104,73.724L399.816,72.1L396.216,69.559L396.504,68.261L399.24,64.319L401.904,63.239L401.832,61.081L402.984,59.194L403.704,55.099L404.568,53.915L405.792,55.422L408.384,54.345L410.184,51.493L408.096,49.449L408.312,45.956L411.264,45.418L411.984,41.016L416.087,42.358L415.007,40.963L415.943,37.905L418.463,37.905L419.975,40.802L421.415,40.963L419.903,39.139L421.343,39.568L419.111,37.369L420.263,36.297L422.711,36.565L421.991,32.868L425.519,34.797L426.599,31.69L426.959,33.886L429.551,35.707L434.087,35.279L435.959,34.475L438.19,35.815L440.854,34.261L443.374,34.422L444.022,35.815L444.31,33.457L446.398,32.44L448.054,33.136L447.262,30.994L447.622,28.8L446.686,27.57L448.27,25.431L447.118,25.324L445.174,22.598L443.23,21.957L438.766,23.293L436.247,20.195L433.799,20.035L435.599,17.739L436.535,19.02L437.183,17.099L439.27,18.38L439.126,20.355L440.638,21.583L440.422,17.152L441.718,17.846L442.798,16.992L444.886,18.753L447.982,23.133L449.278,22.865L451.078,20.248L454.246,23.133L455.902,26.5L458.422,25.966L458.062,27.142L462.238,27.73L465.549,26.393L467.637,27.088L466.053,28.319L467.709,29.549L469.725,28.64L471.669,30.138L471.525,32.172L473.109,30.406L475.341,31.851L477.861,31.958L480.597,30.084L481.245,31.637L483.981,31.637L482.397,33.082L483.693,33.297L485.277,35.064L489.884,32.333L493.34,32.493L493.556,30.299L495.716,30.031L498.236,28.586L495.5,31.101L498.164,30.406L494.348,33.618L495.644,35.922L498.02,33.297L500.684,34.636L499.532,36.779L500.108,38.227L503.78,38.012L505.508,35.011L502.556,33.939L504.212,32.011L501.836,31.851L504.716,30.78L505.004,31.744L507.02,30.084L508.892,32.333L509.036,33.779L510.548,35.44L511.628,33.564L513.427,34.529L514.291,36.511L510.404,41.714L507.452,44.559L509.684,46.224L507.524,46.493L508.676,47.89L507.236,50.579L505.796,50.525L505.58,47.998L504.572,49.503L502.268,51.116L502.124,48.858L501.116,50.632L499.46,50.686L498.02,52.139L499.244,54.076L497.588,54.238L497.372,56.5L498.236,58.763L500.612,57.954L499.604,61.405L498.596,62.322L498.38,66.101L496.076,67.235L492.476,72.317L492.332,73.453L490.1,74.427L491.54,78.219L497.588,81.906L499.028,83.317L503.564,85.923L503.924,87.824L508.028,90.652L513.067,89.02L510.044,91.794L510.764,93.862L513.931,94.244L515.227,92.991L518.467,95.006L521.059,97.185L527.035,99.366L528.907,102.313Z" fill="#EBE9FC" stroke="#010104" stroke-width="0.5" vector-effect="non-scaling-stroke" fill-opacity="1" stroke-opacity="1"></path><path class="state transition-colors duration-200 cursor-pointer is-selected" d="M140.698,253.509L141.418,253.741L142.066,257.573L144.514,263.102L144.514,264.851L141.994,261.413L140.05,256.063ZM178.929,174.72L177.057,175.056L178.713,172.368L179.793,173.208ZM319.467,84.022L321.267,83.805L321.843,85.108L319.899,84.891ZM390.672,76.918L390.672,262.461L390.672,357.339L390.672,363.788L385.345,366.62L375.337,371.002L371.449,371.744L364.033,374.466L354.458,375.334L349.778,374.714L346.826,373.785L341.93,375.581L336.747,379.552L333.579,380.608L328.323,383.096L326.811,384.84L323.787,386.149L318.315,387.085L314.571,390.208L312.916,394.59L312.052,398.544L308.956,401.248L308.74,402.76L305.356,405.471L302.548,404.84L301.324,406.418L299.452,406.671L298.444,404.335L290.596,404.966L290.308,405.913L286.421,405.219L285.557,407.05L282.749,406.797L281.813,403.39L278.645,404.651L275.765,404.335L274.253,403.264L271.229,403.138L268.565,404.146L259.35,404.651L257.046,406.039L250.422,405.282L247.398,406.418L243.726,409.325L240.774,413.887L241.062,415.283L238.902,416.49L236.599,415.601L232.351,415.22L232.927,416.172L231.055,418.016L226.735,420.244L225.223,423.815L221.119,425.285L216.871,426.052L218.455,427.779L214.351,426.499L213.343,428.163L209.24,425.988L206.288,425.86L201.248,426.499L199.592,425.668L198.008,426.563L195.344,425.604L195.848,424.518L194.12,422.858L193.256,423.879L187.713,422.475L186.993,420.308L182.025,415.029L177.633,412.555L175.041,412.492L174.321,413.443L172.737,411.604L172.017,408.187L171.801,400.682L172.305,397.664L174.321,399.487L176.841,400.053L179.217,399.11L182.889,393.337L182.961,388.396L181.809,381.727L182.241,380.36L184.185,381.23L183.609,379.428L184.113,373.6L184.041,368.162L183.105,363.049L179.577,356.726L177.345,351.036L175.329,348.046L174.033,344.574L172.089,336.984L171.585,333.654L172.017,331.358L171.657,326.954L172.161,323.763L169.857,316.86L167.049,313.687L165.897,311.415L166.113,309.086L165.105,306.701L161.722,301.524L159.418,299.326L158.41,294.228L159.13,291.98L157.114,285.428L153.226,278.428L150.49,274.204L145.882,269.405L145.594,266.543L146.098,262.403L146.53,267.827L147.466,265.492L149.122,268.996L150.058,268.528L150.058,272.33L154.018,272.857L155.098,271.042L155.098,268.412L152.002,266.309L150.346,263.976L149.986,261.471L147.826,257.748L149.338,253.973L149.626,255.831L153.154,260.772L152.29,265.026L153.73,266.076L155.458,262.053L155.386,264.501L156.466,268.236L158.554,270.282L160.498,267.944L159.85,265.901L161.074,262.286L160.93,259.667L159.274,258.852L155.746,252.929L153.802,248.18L152.362,247.37L150.85,243.326L150.706,240.557L148.186,237.216L147.322,232.329L147.754,228.944L150.634,221.788L153.01,219.789L153.514,216.651L152.938,213.802L153.946,211.923L153.154,207.489L151.57,206.524L151.354,203.914L153.802,199.721L155.242,195.028L157.114,191.867L159.346,190.682L158.05,197.119L159.418,200.174L158.626,202.213L159.706,202.95L161.362,201.647L162.658,202.213L166.905,191.585L171.369,189.047L174.105,188.597L179.577,186.007L181.809,183.194L185.049,181.34L187.065,178.477L190.448,176.962L191.456,174.832L194.84,174.496L200.816,169.907L200.312,171.865L201.752,172.648L206.072,170.69L206.72,172.145L209.168,172.928L213.056,171.753L215.143,171.753L217.807,170.131L218.311,169.012L221.335,166.778L225.007,166.833L232.207,165.158L234.439,161.645L238.11,160.196L243.654,161.979L247.326,160.196L254.094,159.249L260.574,156.856L265.253,154.687L268.997,152.075L270.869,150.132L274.109,145.419L276.053,141.157L275.549,139.498L277.277,139.332L277.349,137.343L278.861,135.244L280.157,135.465L284.981,131.053L286.637,130.281L287.213,127.858L284.261,127.527L284.765,123.072L283.829,120.655L284.261,115.771L285.917,112.976L288.94,110.183L290.884,111.004L289.804,109.034L290.452,108.05L294.34,107.886L293.404,105.043L295.42,103.568L295.852,101.985L298.516,102.094L297.004,102.913L296.572,104.661L299.524,108.378L299.38,110.074L301.18,111.716L303.412,116.868L305.788,119.996L306.004,117.416L307.156,114.291L306.436,111.223L307.516,111.661L310.54,114.894L309.532,111.497L311.764,109.363L309.172,109.472L307.948,107.12L304.42,105.426L303.772,103.241L307.372,103.077L305.068,101.821L308.236,102.203L308.236,100.675L306.58,100.403L306.436,97.73L309.172,97.294L310.036,98.93L308.596,99.421L312.7,101.385L311.404,98.766L315.435,100.184L315.867,101.33L318.099,101.876L324.723,101.494L322.059,100.566L319.035,100.566L318.603,98.712L319.827,96.095L320.907,98.057L321.987,97.076L322.203,94.189L320.763,94.734L319.035,93.209L318.819,87.498L320.115,86.629L322.563,87.172L324.147,84.837L323.139,83.1L326.019,83.262L326.235,80.875L327.891,81.255L328.323,78.544L333.507,81.526L334.875,81.472L335.019,79.357L331.203,78.11L333.147,77.189L330.483,75.185L332.067,73.074L329.763,72.912L330.267,70.64L332.139,72.533L335.739,70.856L337.467,71.397L337.755,66.641L338.978,71.073L340.85,69.991L341.282,72.209L342.506,73.291L342.794,71.289L344.594,71.181L342.938,69.126L344.882,68.586L346.034,64.481L347.258,63.563L347.474,66.425L350.642,62.484L352.154,62.376L351.002,64.211L353.306,66.641L354.962,62.7L356.906,62.7L355.61,59.625L358.778,58.547L361.586,62.43L363.169,61.243L364.897,61.459L367.129,63.887L369.865,65.776L373.177,70.532L377.857,74.157L376.129,81.038L376.201,85L376.849,85.217L377.065,81.201L381.241,75.727L383.401,75.077L386.713,76.268Z" fill="#bfdbfe" stroke="#2563eb" stroke-width="1.5" vector-effect="non-scaling-stroke" fill-opacity="1" stroke-opacity="1"></path><path class="state transition-colors duration-200 cursor-pointer" d="M708.396,432.202L705.3,432.844L703.788,437.217L704.076,441.345L703.212,443.089L701.556,442.572L700.764,439.731L699.18,439.086L698.82,434.965L699.684,431.496L704.076,428.355Z" fill="#EBE9FC" stroke="#010104" stroke-width="0.5" vector-effect="non-scaling-stroke" fill-opacity="1" stroke-opacity="1"></path><path class="state transition-colors duration-200 cursor-pointer" d="M525.091,436.702L524.443,439.473L527.539,439.666L528.691,440.893L529.555,439.473L532.003,440.118L532.939,442.12L531.715,443.154L529.915,442.313L527.179,442.249L524.947,443.218L525.091,444.706L522.499,446.325L521.203,444.965L518.683,444.318L517.531,445.548L515.731,445.159L510.908,445.936L510.044,444.253L508.1,442.96L508.892,440.312L512.348,439.086L516.523,438.441L520.843,436.766ZM577.289,484.915L573.257,485.115L571.529,484.516L567.785,481.395L565.913,477.089L561.954,473.654L558.066,467.662L558.858,466.545L557.058,463.199L558.786,462.152L560.01,459.535L559.866,456.727L555.402,446.131L549.642,439.86L545.322,436.573L546.546,436.766L553.53,443.283L555.33,445.613L556.914,449.114L555.834,445.095L554.034,442.701L547.194,437.088L548.706,435.093L550.218,435.994L550.362,438.828L551.874,438.699L552.162,436.831L549.93,435.286L552.378,434.386L550.722,431.881L545.97,433.422L547.122,435.222L543.45,434.643L546.474,436.058L542.586,435.801L539.202,437.861L534.091,438.377L532.939,436.187L537.618,432.266L538.914,426.627L538.554,423.177L539.274,420.626L537.978,419.607L535.027,414.902L534.523,412.682L532.147,409.072L531.571,412.428L529.915,414.458L529.555,418.461L527.035,426.691L525.811,428.996L521.635,427.907L519.115,428.804L518.035,430.213L516.019,429.893L513.427,431.175L512.851,430.277L514.795,427.395L514.507,426.307L515.875,423.624L522.283,423.943L523.363,418.334L522.571,415.093L523.003,411.604L522.499,409.705L524.011,407.997L524.731,404.335L526.531,402.634L529.987,397.79L527.971,392.773L528.691,391.521L531.355,390.708L530.347,388.084L528.187,379.925L527.323,379.179L527.107,382.225L527.971,385.339L527.395,387.834L525.883,387.085L522.427,390.583L521.275,395.217L518.899,400.116L515.731,401.626L514.507,400.682L513.499,402.886L509.252,404.84L505.508,407.997L503.42,412.428L501.548,413.887L500.9,415.791L498.812,416.681L497.876,418.843L497.948,421.136L499.388,421.519L499.964,425.157L499.244,425.732L497.012,423.177L495.788,422.922L494.06,424.71L493.628,423.305L490.892,420.117L487.796,417.317L486.069,418.08L486.573,416.109L488.948,417.062L490.532,418.843L489.596,411.795L488.3,406.607L487.149,404.651L481.749,399.738L482.109,398.104L481.317,394.527L478.941,392.147L475.557,390.833L472.965,390.958L471.597,386.96L469.581,386.274L470.661,384.902L469.797,382.661L471.957,382.847L473.253,381.976L472.893,380.298L470.949,377.938L466.341,379.241L467.781,376.635L465.909,374.033L463.821,372.981L463.101,371.311L461.59,372.61L460.438,371.559L459.43,373.352L455.398,373.105L452.662,371.497L449.926,368.656L444.886,368.656L444.958,369.952L441.142,370.076L438.622,367.792L434.087,364.465L430.199,362.25L424.655,359.915L419.255,362.127L408.672,361.635L390.672,363.788L390.672,357.339L390.672,262.461L460.798,263.671L530.923,262.461L577.721,262.519L577.721,315.183L577.721,406.986L577.217,406.355Z" fill="#EBE9FC" stroke="#010104" stroke-width="0.5" vector-effect="non-scaling-stroke" fill-opacity="1" stroke-opacity="1"></path><path class="state transition-colors duration-200 cursor-pointer is-selected" d="M771.393,286.135L770.385,281.072L771.825,280.19L771.465,286.135L773.337,287.137L771.897,292.571L771.033,292.631ZM769.233,240.672L769.521,243.961L770.601,245.405L767.289,253.161L765.633,258.969L763.977,254.728L765.849,250.843L765.417,248.354L767.073,247.139L768.657,244.423L766.857,242.056ZM734.171,218.704L736.619,220.075L738.202,223.79L736.907,224.305L733.307,219.332ZM659.294,131.494L661.166,134.527L660.23,135.907L657.062,132.21ZM557.418,102.476L557.994,103.405L556.05,104.224L555.186,103.077L553.458,106.027L551.226,107.011L549.282,106.027L551.01,102.913L555.978,101.712ZM597.88,7.716L597.664,10.593L595.576,11.126L595.144,9.527ZM596.656,1.649L598.6,2.234L597.808,3.298L594.784,1.064L595.504,0ZM746.914,313.746L744.97,313.208L742.234,314.404L741.658,316.26L739.066,318.118L738.058,313.746L734.819,312.311L734.315,310.459L730.355,308.669L725.027,308.907L722.651,306.88L718.331,308.072L712.139,308.192L709.98,307.774L708.9,309.504L703.86,312.491L701.916,315.183L639.818,316.231L577.721,315.183L577.721,262.519L530.923,262.461L530.923,104.224L530.995,104.06L533.803,106.519L538.626,108.159L541.218,107.886L542.73,108.925L547.194,110.129L548.994,112.045L548.778,113.414L550.866,117.197L553.386,117.581L556.554,120.16L561.018,121.643L562.098,123.072L565.913,122.962L570.017,121.863L575.129,118.843L577.073,112.702L576.929,111.826L579.089,108.214L580.817,106.683L582.473,102.367L583.193,98.875L584.417,96.259L583.625,94.189L585.353,86.792L587.656,81.309L588.16,79.249L587.153,77.081L585.857,70.748L586.937,66.857L586.793,64.211L585.281,62.106L585.137,59.356L585.929,56.122L588.52,50.794L586.865,46.547L589.456,44.022L590.536,41.553L591.832,43.056L593.488,42.358L590.608,41.392L592.336,40.319L590.392,40.319L588.52,38.978L587.009,39.353L590.176,31.797L591.328,30.406L592.048,32.708L593.776,31.637L592.624,30.566L592.84,27.944L595.36,20.462L596.008,13.951L598.312,13.471L600.328,10.486L602.92,11.019L601.336,13.845L602.92,12.938L603.712,15.125L604.864,14.645L605.944,17.792L605.8,19.447L606.88,21.263L606.16,22.652L606.88,28.586L608.752,29.924L610.768,29.549L612.064,30.673L610.264,33.35L610.12,36.19L612.855,37.155L613.935,39.836L615.663,40.748L614.583,44.72L617.319,44.237L616.671,45.687L617.103,52.246L618.255,55.368L617.175,58.924L618.543,62.214L619.623,63.185L619.911,66.371L621.063,69.451L623.583,71.181L627.039,68.964L627.399,67.181L629.199,67.937L632.511,65.722L634.311,68.424L634.095,70.748L635.031,71.884L638.27,72.804L640.574,75.943L643.526,76.323L644.39,78.219L645.47,78.11L643.958,80.604L644.102,82.937L645.11,82.503L644.102,85.325L644.39,87.716L645.758,91.141L645.614,93.645L647.27,96.204L647.27,99.639L646.334,102.422L652.166,109.636L654.974,109.417L653.822,112.154L656.774,117.855L656.774,119.941L657.926,121.808L656.918,124.446L657.422,125.601L655.694,130.391L656.054,132.155L658.574,134.086L659.006,135.907L660.95,136.459L660.014,142.153L662.605,145.308L665.845,147.303L667.501,147.303L669.805,149.3L671.389,148.412L673.333,151.076L677.869,151.076L678.229,149.91L679.813,152.908L680.533,155.91L681.901,157.969L683.485,158.08L682.909,155.687L684.421,156.355L686.005,159.305L688.02,158.748L691.188,160.252L690.972,162.202L693.132,163.652L693.996,161.7L695.58,161.645L696.372,164.321L697.452,165.326L700.044,165.326L700.116,167.839L697.02,170.019L697.884,172.145L700.116,174.664L701.988,175.281L702.852,177.074L704.796,177.411L706.02,178.926L705.444,180.497L706.956,182.126L707.748,184.544L707.028,186.007L708.612,185.894L709.836,189.498L709.188,190.682L711.924,198.307L713.435,200.684L715.091,200.571L718.691,205.048L716.819,199.269L717.467,197.402L716.099,197.911L716.315,195.198L717.035,196.667L718.835,196.61L721.355,200.854L722.723,201.25L727.547,204.481L726.467,200.401L725.171,199.438L725.891,197.854L727.763,200.797L729.851,202.157L728.555,203.63L730.211,203.347L730.859,205.956L729.923,213.745L731.147,215.283L730.715,218.02L732.587,220.303L735.611,222.532L736.547,224.705L737.914,225.049L740.578,228.199L744.322,229.747L743.314,227.798L745.762,228.428L746.266,230.493L748.138,231.698L750.082,236.871L751.522,238.656L755.482,240.845L756.85,242.576L757.066,245.174L759.73,249.337L763.401,250.148L764.265,253.741L763.257,254.902L763.905,258.155L765.129,259.434L765.201,261.937L766.065,259.608L766.641,261.354L767.937,261.354L765.993,267.36L766.497,273.677L767.145,274.38L767.145,278.604L768.009,280.719L765.345,283.307L766.569,283.307L765.777,285.369L768.657,288.14L769.665,291.389L771.681,294.11L771.753,298.792L772.689,300.098L770.745,301.643L767.721,302.059L766.569,303.665L762.321,303.248L760.882,303.784L756.85,302.059L755.626,303.546L748.642,306.94L750.226,309.922L749.65,313.029Z" fill="#bfdbfe" stroke="#2563eb" stroke-width="1.5" vector-effect="non-scaling-stroke" fill-opacity="1" stroke-opacity="1"></path><path class="state transition-colors duration-200 cursor-pointer" d="M859.374,360.652L859.95,361.512L859.662,361.942L859.446,361.021Z" fill="#EBE9FC" stroke="#010104" stroke-width="0.5" vector-effect="non-scaling-stroke" fill-opacity="1" stroke-opacity="1"></path><path class="state transition-colors duration-200 cursor-pointer" d="M676.933,594.369L676.213,597.037L673.837,594.153L676.141,591.994ZM690.756,533.824L689.82,536.029L688.524,534.651L689.604,533.136L686.869,532.586L687.013,531.554L691.908,530.043L694.428,532.586L692.124,534.1ZM686.149,518.012L689.46,522.512L691.476,523.126L691.62,528.739L689.964,528.122L688.812,529.357L687.516,528.396L686.653,525.725L685.069,524.493L684.997,521.692L683.053,521.419ZM625.599,524.835L623.295,526.478L621.927,522.512L622.359,517.808L624.231,515.156L625.815,516.312L626.607,523.673ZM638.414,538.721L638.99,536.443L640.574,537.616L638.99,538.652L641.87,540.657L644.174,539.896L645.398,541.141L651.158,542.942L652.382,544.676L654.398,545.162L659.006,547.593L662.245,547.802L667.861,545.995L668.293,547.663L670.453,547.732L668.509,546.412L668.725,545.162L671.533,543.843L673.909,544.468L675.709,543.15L678.157,544.537L680.605,541.211L681.685,540.726L684.061,542.111L685.501,541.28L686.581,538.928L690.108,541.072L691.98,544.398L691.116,548.498L692.052,550.378L691.188,553.727L691.764,556.944L690.9,561.012L691.908,563.402L691.548,566.219L692.484,567.489L691.764,571.802L690.972,570.457L691.836,567.701L689.388,566.361L690.612,564.951L689.604,564.106L689.244,566.854L688.236,567.278L686.941,571.731L686.941,575.986L685.141,576.696L686.077,580.397L685.141,581.253L684.637,583.894L686.509,583.537L686.293,591.06L684.997,589.121L683.557,591.491L682.189,589.767L682.909,588.547L680.893,586.827L684.637,587.257L684.349,584.251L681.973,584.108L680.389,582.537L679.093,583.18L679.957,585.753L678.085,587.329L678.661,584.394L677.797,584.752L675.925,581.823L676.861,584.752L676.645,588.045L678.085,591.419L675.277,588.762L675.277,591.706L672.685,591.203L671.533,588.691L670.741,590.557L672.829,592.713L669.013,600L666.781,599.783L664.405,597.542L660.374,597.615L658.934,596.821L655.982,598.12L655.622,595.234L654.686,594.441L656.99,593.865L659.294,594.729L658.286,592.21L656.054,593.217L654.398,590.485L653.03,592.569L650.798,587.329L647.99,585.396L645.614,578.901L644.246,577.905L643.022,569.255L643.814,570.74L646.694,572.935L647.27,575.702L648.782,572.297L647.558,572.368L645.11,568.195L644.246,569.82L643.31,564.458L638.918,559.047L636.471,551.284L635.103,548.985L634.959,546.064L633.951,544.26L635.391,542.041L635.247,538.238Z" fill="#EBE9FC" stroke="#010104" stroke-width="0.5" vector-effect="non-scaling-stroke" fill-opacity="1" stroke-opacity="1"></path><path class="state transition-colors duration-200 cursor-pointer" d="M728.987,427.843L729.851,428.932L727.547,429.124L727.979,428.291Z" fill="#EBE9FC" stroke="#010104" stroke-width="0.5" vector-effect="non-scaling-stroke" fill-opacity="1" stroke-opacity="1"></path><path class="state transition-colors duration-200 cursor-pointer" d="M727.547,429.124L726.683,429.572L724.379,435.865L720.419,442.637L719.915,447.621L720.203,450.932L719.195,452.167L719.051,455.684L716.459,462.675L717.179,465.101L716.099,465.954L717.971,467.005L718.835,469.503L717.251,469.634L717.539,474.116L690.252,460.254L688.74,459.927L690.18,457.314L689.388,455.879L687.372,449.308L686.797,445.872L682.405,443.477L679.885,444.642L677.437,444.059L676.573,446.196L673.189,445.548L672.541,446.714L668.869,446.584L665.413,444.577L662.389,444.383L661.67,445.613L659.006,445.807L655.55,444.965L654.758,444.059L651.662,443.994L648.998,441.732L645.326,442.313L640.214,442.12L638.99,444.836L639.854,446.325L636.039,447.362L633.879,445.936L631.071,443.089L629.559,439.989L620.991,433.551L618.183,432.395L617.967,430.342L615.231,428.996L614.079,424.837L614.511,421.837L611.128,419.862L607.096,419.416L605.728,417.698L604.648,418.016L603.352,421.519L602.056,421.264L600.472,417.825L599.32,416.681L599.68,413.379L597.376,411.795L596.944,410.275L593.704,408.756L589.384,408.566L586.577,410.654L581.465,408.061L578.441,407.871L577.721,406.986L577.721,315.183L639.818,316.231L701.916,315.183L703.86,312.491L708.9,309.504L709.98,307.774L712.139,308.192L718.331,308.072L722.651,306.88L725.027,308.907L730.355,308.669L734.315,310.459L734.819,312.311L738.058,313.746L739.066,318.118L741.658,316.26L742.234,314.404L744.97,313.208L746.482,314.704L746.914,313.746L749.65,313.029L750.226,309.922L748.642,306.94L755.626,303.546L756.85,302.059L760.882,303.784L762.321,303.248L766.569,303.665L767.721,302.059L770.745,301.643L772.689,300.098L773.985,302.237L773.769,307.893L774.561,309.146L774.201,312.849L771.897,315.841L770.025,320.939L770.529,322.26L769.809,327.677L767.937,335.409L765.561,341.595L764.553,346.4L765.201,348.9L766.065,349.327L765.705,352.564L764.481,354.215L763.761,360.038L762.393,361.574L760.882,366.559L758.65,368.471L757.138,372.424L758.002,373.29L757.642,377.628L755.482,378.496L752.098,381.852L750.154,382.35L752.242,382.91L750.874,384.093L746.626,385.401L744.034,389.145L743.386,391.521L741.658,394.088L740.218,397.853L737.698,398.418L738.922,399.487L737.986,405.787L735.035,406.923L737.266,407.05L734.099,410.465L732.443,412.872L731.651,416.935L732.011,417.953L731.003,421.455L729.347,423.049L730.139,425.285L731.291,425.86L730.571,427.651L729.923,425.668L728.987,427.843L727.979,428.291ZM708.396,432.202L704.076,428.355L699.684,431.496L698.82,434.965L699.18,439.086L700.764,439.731L701.556,442.572L703.212,443.089L704.076,441.345L703.788,437.217L705.3,432.844Z" fill="#EBE9FC" stroke="#010104" stroke-width="0.5" vector-effect="non-scaling-stroke" fill-opacity="1" stroke-opacity="1"></path><path class="state transition-colors duration-200 cursor-pointer is-selected" d="M577.289,484.915L577.217,406.355L577.721,406.986L578.441,407.871L581.465,408.061L586.577,410.654L589.384,408.566L593.704,408.756L596.944,410.275L597.376,411.795L599.68,413.379L599.32,416.681L600.472,417.825L602.056,421.264L603.352,421.519L604.648,418.016L605.728,417.698L607.096,419.416L611.128,419.862L614.511,421.837L614.079,424.837L615.231,428.996L617.967,430.342L618.183,432.395L620.991,433.551L629.559,439.989L631.071,443.089L633.879,445.936L636.039,447.362L639.854,446.325L638.99,444.836L640.214,442.12L645.326,442.313L648.998,441.732L651.662,443.994L654.758,444.059L655.55,444.965L659.006,445.807L661.67,445.613L662.389,444.383L665.413,444.577L668.869,446.584L672.541,446.714L673.189,445.548L676.573,446.196L677.437,444.059L679.885,444.642L682.405,443.477L686.797,445.872L687.372,449.308L689.388,455.879L690.18,457.314L688.74,459.927L690.252,460.254L717.539,474.116L714.587,474.974L712.859,477.817L709.836,479.473L699.108,479.738L691.548,480.201L685.573,482.125L680.389,485.314L677.365,488.111L669.301,496.6L662.102,498.478L661.094,497.538L658.502,498.746L660.158,501.838L663.397,499.217L662.317,506.354L658.502,501.031L657.062,500.09L654.47,501.771L652.67,496.667L648.998,496.868L648.134,495.192L644.678,494.121L641.87,494.255L644.534,492.717L645.614,494.322L646.694,492.182L644.534,491.781L644.822,489.644L648.278,489.911L646.838,488.244L644.75,488.311L642.158,491.647L639.206,493.92L636.975,491.246L639.854,490.512L641.942,486.912L641.798,484.782L639.782,481.793L637.334,481.727L632.727,485.78L630.207,486.645L632.655,487.244L634.671,486.246L635.751,486.978L634.671,489.444L630.783,489.711L625.311,493.385L622.071,497.538L619.839,498.209L617.319,500.829L614.151,498.814L612.639,498.881L609.832,496.398L605.944,495.192L603.496,493.118L599.536,490.979L596.8,491.781L592.48,489.377L589.6,488.977L587.368,490.445L587.944,491.647L583.481,491.447L583.625,489.511L579.809,486.246Z" fill="#bfdbfe" stroke="#2563eb" stroke-width="1.5" vector-effect="non-scaling-stroke" fill-opacity="1" stroke-opacity="1"></path></g></svg>