<svg class="w-full h-full object-contain filter drop-shadow-sm" viewBox="0 0 1000 600" style="width: 100%; height: 100%;" xmlns="http://www.w3.org/2000/svg"><rect width="1000" height="600" fill="transparent" stroke-width="1px" fill-opacity="1" stroke-opacity="1"></rect><g fill="rgb(0, 0, 0)" stroke-width="1px" fill-opacity="1" stroke-opacity="1"><path class="state transition-colors duration-200 cursor-pointer" d="M772.591,441.5L772.292,442.021L771.976,441.995L772.261,441.622Z" fill="#EBE9FC" stroke="#010104" stroke-width="0.5" vector-effect="non-scaling-stroke" fill-opacity="1" stroke-opacity="1"></path><path class="state transition-colors duration-200 cursor-pointer is-selected" d="M172.025,432.614L171.584,436.072L169.925,435.303L169.663,432.154ZM183.962,429.595L187.357,430.436L188.588,432.212L186.205,432.464ZM182.703,399.148L176.575,400.911L179.672,397.706L184.786,397.483ZM178.143,389.98L175.648,393.492L177.572,388.597L180.263,388.624ZM170.669,378.239L171.477,380.39L170.192,380.962L170.288,377.208L168.056,372.528L168.456,368.657L171.311,374.315ZM178.303,376.381L177.98,379.177L176.459,378.477L178.271,374.404L181.244,374.616ZM169.724,366.313L168.442,365.09L169.747,363.59L172.141,363.473L172.862,365.661ZM189.347,442.002L191.252,444.397L191.923,447.926L189.094,443.136ZM189.372,441.948L189.347,442.002L189.297,441.913ZM256.44,311.587L281.582,322.092L250.214,404.066L250.927,408.326L249.58,407.626L249.894,410.848L252.635,412.823L252.802,415.221L254.335,416.794L255.129,415.507L256.498,417.768L256.541,421.5L258.035,425.114L257.362,429.596L259.596,428.615L261.355,430.416L260.168,431.954L261.416,434.578L263.957,434.873L265.046,442.061L267.61,441.586L270.357,452.581L273.084,455.985L272.345,457.565L274.451,460.077L275.092,463.01L276.796,463.27L277.967,466.787L276.982,475.147L275.046,477.633L276.902,483.84L278.208,484.461L278.899,487.582L200.823,459.919L199.644,457.974L197.883,458.644L198.772,451.191L196.231,451.57L193.413,448.273L193.221,446.479L196.113,444.311L195.226,442.664L193.432,444.014L189.372,441.948L190.714,437.697L192.313,436.399L187.65,437.645L190.147,434.268L189.96,431.41L187.971,429.341L184.93,429.467L177.378,424.349L178.333,422.627L181.049,421.719L181.383,419.422L176.008,418.979L173.123,414.546L172.533,410.477L177.089,407.083L179.215,407.111L184.161,409.43L179.245,406.19L174.617,407.874L174.832,404.561L176.702,401.515L179.473,400.283L185.62,399.778L184.658,396.883L178.554,397.656L178.789,392.879L176.41,394.707L181.23,387.459L179.349,388.54L178.155,387.025L179.555,383.133L178.21,379.707L179.146,376.101L180.546,376.528L182.065,374.052L185.063,371.504L181.011,373.477L177.838,374.097L175.41,376.611L173.528,366.451L175.475,364.087L173.791,363.738L173.416,360.521L176.983,355.958L181.376,353.571L175.841,355.298L183.994,350.576L186.462,343.628L188.566,342.516L188.833,339.615L186.93,338.252L187.056,336.486L184.186,331.942L182.244,327.698L180.783,326.886L181.775,324.042L180.729,322.301L182.517,320.563L180.866,318.653L182.431,317.679L182.601,312.731L184.111,298.38L183.701,292.448L182.313,289.787L182.875,286.565L182.483,283.058L181.319,281.782L181.541,279.379L183.039,278.19L182.194,273.422L175.457,272.184L172.215,275.224L170.284,276.163L168.932,275.273L163.372,275.541L165.135,270.928L163.719,260.71L164.349,258.826L163.252,255.993ZM176.081,396.819L176.117,398.586L178.348,396.205L178.111,398.161L174.713,401.742L173.392,407.298L171.927,405.987L172.287,403.955L173.976,403.303L173.141,400.503L174.702,398.911L174.173,394.923ZM175.87,378.288L174.744,381.592L176.649,378.92L179.053,382.458L178.835,384.63L175.646,389.244L176.302,389.329L175.682,391.623L174.261,390.991L174.508,389.235L174.837,389.278L174.265,389.036L176.456,385.163L171.542,389.984L171.471,383.237L172.669,386L174.61,381.044L173.571,379.928ZM173.129,381.038L172.153,381.378L172.353,376.33L171.139,368.971L170.962,371.256L169.433,368.469L172.645,366.491L174.029,370.274L175.085,377.041L173.508,376.909ZM192.89,464.113L189.848,465.916L187.223,463.819L181.645,457.964L178.514,452.848L182.748,451.4L177.758,450.894L174.375,446.267L174.616,444.052L172.575,442.314L172.139,436.819L174.143,437.083L172.329,434.774L172.296,431.346L168.83,431.058L170.134,427.968L168.4,428.823L168.235,425.379L164.201,424.417L166.334,423.177L164.022,416.216L164.434,413.732L169.595,414.517L171.446,416.024L171.522,418.683L174.664,422.509L181.028,427.43L187.468,434.19L185.572,438.182L186.816,441.941L185.811,442.129L186.978,447.099L192.636,453.043L195.024,459.484L193.616,459.32ZM155.958,371.331L153.128,375.443L153.893,376.87L152.411,381.929L153.688,382.066L153.875,385.899L151.996,386.309L151.308,378.018L149.899,372.444L150.072,368.931L149.592,365.638L153.417,367.714L156.111,367.826ZM154.377,350.893L158.862,355.079L158.402,358.684L154.129,359.042L156.093,361.018L158.814,358.728L159.263,356.991L163.68,357.319L159.456,360.989L156.034,366.047L152.185,367.099L150.367,365.979L149.37,363.545L152.009,362.606L149.425,359.176L151.1,357.221L150.493,355.368Z" fill="#bfdbfe" stroke="#2563eb" stroke-width="1.5" vector-effect="non-scaling-stroke" fill-opacity="1" stroke-opacity="1"></path><path class="state transition-colors duration-200 cursor-pointer" d="M461.392,217.63L461.38,216.079L459.547,217.573L457.565,217.391L455.967,213.968L454.753,215.722L449.877,212.369L448.023,211.532L446.682,208.121L446.273,204.95L448.101,200.474L446.083,197.586L447.288,193.519L446.933,190.697L449.121,189.023L450.649,190.76L451.494,187.992L449.284,186.981L451.942,183.48L452.56,181.187L455.226,180.421L452.917,180.942L452.578,172.808L450.303,168.236L450.846,163.454L450.214,156.424L450.464,155.027L452.212,154.647L453.869,155.595L451.827,152.707L452.132,150.94L454.192,149.569L458.444,148.357L461.997,148.817L464.218,150.772L467.054,150.047L469.374,150.246L472.769,151.492L468.649,161.984L466.966,167.494L464.785,169.62L460.313,168.621L457.063,169.033L458.32,169.902L460.233,173.519L458.783,175.684L457.49,180.004L455.625,180.412L456.382,185.269L457.183,183.384L459.452,183.675L459.064,185.373L463.073,189.483L463.788,192.394L463.601,197.324L466.336,199.404L468.292,202.888L468.869,205.25L469.81,203.693L471.124,206.481L468.769,207.172L467.676,206.399L466.152,208.039L468.278,207.74L469.118,208.587L467.667,210.826L464.752,213.548L467.884,213.863L470.311,216.285L472.056,213.599L473.772,215.687L476.064,215.15L478.428,216.505L478.087,219.346L473.326,218.828L475.977,221.374L477.948,224.677L477.389,225.739L478.057,228.727L477.629,230.909L479.158,231.735L479.609,233.663L480.884,231.522L482.018,227.595L481.695,221.827L483.127,218.753L485.128,218.724L486.452,220.796L490.597,224.268L492.646,230.964L492.077,232.89L490.541,230.803L489.471,232.185L491.151,239.16L496.079,244.583L496.935,246.204L499.152,245.725L499.803,243.301L501.426,243.607L500.596,239.234L503.181,233.507L502.963,229.635L503.457,228.234L502.936,223.742L504.45,222.956L507.438,222.878L505.379,221.778L506.909,220.071L505.931,218.97L508.084,218.538L503.479,216.722L501.979,213.101L502.414,211.581L501.5,210.399L502.145,207.454L503.575,208.245L504.368,206.84L506.951,206.509L510.156,207.801L509.359,206.432L511.077,206.715L510.517,208.036L515.566,207.466L514.359,205.763L516.065,205.718L515.967,207.871L516.895,209.932L513.442,210.023L518.301,210.734L519.366,212.274L523.667,212.853L524.351,214.224L522.197,217.389L525.593,218.642L525.817,220.665L522.62,224.357L520.182,224.145L519.482,225.383L521.653,225.9L521.695,228.381L523.534,228.596L523.873,231.984L528.087,235.006L529.761,237.12L529.652,244.008L527.375,244.751L526.741,247.975L524.838,251.397L522.745,252.003L521.927,255.179L520.216,255.45L519.143,253.066L516.976,251.906L516.816,249.107L516.081,250.927L514.065,248.764L514.092,247.496L511.361,248.334L516.095,251.285L515.882,252.647L517.632,254.071L519.923,257.733L518.342,257.908L516.677,256.47L514.169,256.616L515.967,258.58L510.74,258.037L509.25,254.265L506.893,255.538L504.138,255.238L501.686,257.385L502.926,258.881L507.638,260.329L507.207,262.25L504.986,264.495L504.977,266.944L500.419,273.418L497.214,273.768L493.088,270.69L491.326,269.995L485.923,266.215L483.831,267.182L475.362,267.026L478.344,268.765L477.858,267.143L484.523,268.483L487.521,270.807L490.611,274.644L502.586,274.438L503.455,275.688L500.574,284.582L499.338,285.214L498.831,290.029L494.535,293.733L490.875,291.753L492.593,294.358L489.205,292.809L487.591,290.418L486.89,292.378L487.814,294.541L486.062,294.88L487.064,296.681L485.437,299.843L483.406,299.129L482.884,302.422L479.808,299.883L476.429,298.939L471.912,298.326L473.71,299.404L471.551,302.003L475.595,299.052L478.563,302.158L482.429,303.108L483.657,307.735L482.608,309.708L481.334,309.63L478.805,312.173L474.177,311.172L472.171,312.464L475.517,314.217L475.451,315.99L472.361,315.99L472.225,317.824L470.731,317.194L470.866,319.898L468.524,321.422L469.568,322.316L468.054,324.21L468.684,326.361L465.169,324.796L467.642,327.112L462.773,331.88L463.861,333.787L461.984,333.786L462.815,335.232L460.518,340.532L459.39,345.03L457.903,345.178L458.816,347.277L457.609,352.889L406.254,351.013L411.811,290.894L410.257,290.394L373.314,278.021L369.118,276.17L367.266,273.98L362.405,264.644L352.04,262.14L319.132,213.945L319.019,213.581L327.17,192.878L328.311,195.627L335.096,200.953L337.172,204.781L346.405,211.092L345.348,208.636L347.372,208.464L351.354,211.608L353.331,214.544L355.13,219.813L354.054,221.734L349.228,219.908L350.054,221.451L347.479,220.811L347.462,223.347L344.925,223.82L346.533,226.29L348.289,226.625L352.726,229.682L360.227,231.926L360.928,231.125L365.009,232.5L369.178,232.017L373.836,229.59L374.737,234.76L378.199,235.413L378.502,240.854L379.596,237.565L380.724,238.63L382.791,242.699L382.802,246.194L381.513,246.076L380.9,248.552L384.664,256.681L383.419,252.921L383.118,246.672L384.874,249.872L385.301,247.723L386.571,249.144L385.879,246.141L384.943,246.037L385.015,241.416L385.612,240.017L383.903,236.936L383.118,242.277L382.661,239.118L384.605,234.712L386.132,234.085L385.554,231.386L387.817,232.515L389.528,231.546L391.483,232.235L392.65,230.38L393.274,231.865L393.734,228.991L397.554,228.559L398.57,225.525L393.713,226.459L392.803,229.442L392.069,227.817L389.915,229.563L387.938,228.013L385.919,228.857L387.005,230.562L383.243,230.05L383.063,227.718L381.121,227.825L384.826,223.455L390.144,223.27L395.865,221.201L398.447,222.259L399.615,224.475L399.499,227.222L398.642,228.9L401.736,231.915L403.195,232.05L403.477,235.021L406.67,235.6L408.551,235.104L411.499,237.52L412.382,239.223L414.648,240.761L416.559,239.986L418.869,241.797L420.514,240.622L422.028,241.037L423.475,239.716L430.429,240.92L431.479,242.101L436.202,240.996L434.321,238.785L435.255,236.921L437.669,241.758L440.847,243.98L440.488,242.785L442.972,241.59L439.934,238.023L437.932,239.51L436.207,238.205L436.672,235.845L434.661,232.855L437.213,233.843L439.78,233.029L438.637,230.38L442.391,231.662L443.675,233.407L443.326,234.59L445.359,234.32L446.435,235.34L444.7,238.054L449.602,234.161L447.931,240.869L447.97,243.835L447.152,242.942L446.502,246.021L448.694,246.504L447.659,249.287L448.642,249.586L450.552,247.45L451.39,248.512L449.973,250.473L451.742,249.635L452.713,253.24L449.732,253.613L446.801,252.896L449.837,256.217L448.537,253.909L453.021,254.243L452.686,250.516L453.649,248.668L452.302,246.253L451.988,243.647L450.725,242.646L452.033,237.416L455.182,237.969L457.915,234.822L458.618,232.902L462.743,229.017L461.037,229.437L461.647,225.785L459.839,223.941L458.977,227.42L456.204,227.489L456.277,224.393L458.62,222.965L457.72,221.679L458.06,219.107L459.857,218.816ZM461.392,217.63L461.356,217.87L459.905,220.305L460.123,221.43L462.364,218.308L461.38,218.525L461.356,217.87L461.61,217.443ZM573.494,436.022L576.096,435.794L579.831,438.698L581.336,442.06L578.37,441.902L568.766,440.097L569.769,437.514ZM583.726,391.471L583.831,386.135L584.543,385.821L585.457,389.483ZM638.934,303.66L641.302,304.522L641.361,307.209L639.69,309.446L638.529,308.998L637.941,304.172ZM650.522,279.448L648.317,278.125L649.271,277.51L653.109,279.776L654.399,281.626L654.508,284.347L648.856,282.923L650.922,280.366ZM557.545,305.246L559.095,306.79L559.625,310.482L558.277,316.776L554.778,314.857L553.612,312.841L553.317,309.885L554.892,305.495ZM647.556,268.607L649.262,267.723L649.206,270.404L646.986,270.817ZM609.417,281.286L611.655,281.584L614.494,283.154L613.754,284.413L611.204,284.943L606.641,281.633ZM559.854,288.191L564.642,287.708L566.42,289.586L566.396,290.941L564.367,292.988L559.533,289.804ZM566.966,283.599L570.006,284.168L571.44,285.21L570.894,286.914L568.99,286.87L565.647,285.089ZM512.262,261.26L513.315,261.621L516.276,266.566L515.644,267.815L512.842,265.356ZM516.346,259.533L520.598,261.575L520.311,263.132L522.079,264.36L523.995,264.108L523.362,265.496L520.909,265.183L521.121,264.061L518.407,264.265L518.211,262.319L516.525,261.122ZM563.805,218.194L568.697,218.18L569.661,220.735L564.526,222.526L562.981,221.859L561.448,219.243ZM500.937,235.587L500.185,238.754L498.764,237.997L497.411,234.171L498.518,230.477L500.226,231.731ZM403.932,229.69L401.427,227.254L403.469,227.111L404.402,228.253ZM558.453,212.79L559.948,215.799L556.029,214.084L555.995,210.969ZM418.921,225.764L419.284,227.467L418.186,228.804L415.789,226.968L417.677,225.174ZM427.341,223.598L427.765,221.239L428.401,222.77L427.267,226.217L426.225,227.282L424.914,226.119L425.069,223.267ZM537.327,206.557L538.877,207.429L537.939,208.799L537.269,213.667L535.541,215.415L534.204,214.286L534.744,211.81L535.873,211.267L536.228,207.843ZM544.135,204.185L546.133,203.96L545.494,207.014L545.948,208.06L544.178,208.334L542.755,204.591ZM445.776,215.933L448.278,215.889L448.316,218.929L446.391,217.191ZM450.687,215.23L452.215,216.471L452.053,218.44L450.527,219.404L450.512,216.006L449.082,218.811L449.439,215.532ZM538.567,201.82L538.369,203.425L536.663,205.317L534.942,205.472L535.795,203.143L537.456,201.14ZM529.783,202.067L531.913,203.246L529.348,205.437L529.536,206.373L527.511,206.564L524.954,204.294L527.153,203.029L528.657,203.764ZM493.275,204.804L495.002,204.562L496.124,205.909L493.137,206.692L491.492,205.285ZM426.58,198.837L427.466,198.959L428.581,202.152L426.529,200.754ZM560.635,173.405L562.938,173.217L563.195,174.79L560.581,177.147L559.536,175.812ZM445.796,164.106L446.656,165.023L445.04,166.88L444.127,164.627L445.583,163.014ZM419.81,130.302L420.25,132.019L419.018,133.539L417.549,134.099L415.138,132.178L416.476,129.018L418.657,127.937ZM447.996,126.623L449.371,127.976L448.248,129.51L447.158,129.382L445.782,130.963L445.117,128.805ZM427.063,120.809L424.383,123.702L422.168,123.65L423.483,121.442L426.588,120.393ZM455.272,124.823L453.979,125.099L452.991,122.286L454.448,121.394ZM509.34,111.659L510.204,112.067L509.442,113.927L510.908,115.45L509.379,115.598L509.14,116.867L507.832,116.184ZM434.061,110.149L430.429,112.24L429.298,111.711L431.891,109.685ZM471.035,112.564L469.878,113.169L467.806,109.932L467.83,108.748L469.609,107.846L470.759,109.045L470.379,111.197ZM450.341,49.5L451.418,49.875L451.14,50.974L448.665,50.214ZM584.939,186.078L584.727,186.369L584.727,186.042ZM437.878,150.359L442.074,149.223L442.413,149.962L440.281,152.7L436.94,153.665L434.986,152.049ZM420.163,120.503L425.93,118.906L426.275,119.311L426.134,120.102L421.121,121.424ZM419.496,116.32L425.227,115.486L425.508,116.135L425.686,117.828L424.488,118.946L420.929,119.23L419.051,118.315ZM420.192,109.616L421.578,110.412L424.287,113.088L423.134,115.013L419.426,114.631L419.609,112.473L419.007,110.399ZM465.633,95.82L467.497,96.105L469.655,98.476L470.055,100.503L468.787,102.433L465.899,101.114L464.849,99.632L464.737,96.514ZM418.563,93.327L419.741,96.267L419.428,98.112L420.36,98.176L421.193,99.918L420.773,102.247L419.691,102.732L417.493,99.472L416.722,92.736ZM432.42,92.996L433.214,94.499L431.179,94.587L430.342,95.33L428.349,94.266L428.743,91.98L431.076,92.131ZM439.022,57.889L439.879,58.577L440.769,58.237L441.766,60.905L441.798,63.653L441.311,65.419L439.981,64.082L439.346,61.877L438.007,62.119L437.825,59.675ZM457.227,99.243L455.757,99.606L454.495,99.142L449.072,99.211L448.066,97.4L448.273,95.715L449.385,94.904L450.827,94.085L451.006,95.083L452.446,94.377L456.733,94.453L458.046,95.276ZM584.939,186.078L585.995,184.095L587.128,184.758L586.691,186.596ZM387.699,167.241L388.526,167.48L387.827,166.651L387.916,166.238L388.804,166.737L388.273,164.771L388.477,163.641L389.406,163.532L388.617,162.992L389.345,159.623L390.133,161.4L393.961,166.924L393.243,169.796L393.823,173.039L393.265,175.324L394.174,176.108L393.339,178.155L394.291,180.78L395.439,181.05L396.527,179.107L398,178.876L398.207,177.446L396.489,173.657L397.136,171.63L396.586,168.096L397.224,167.416L396.843,164.582L397.677,158.03L398.852,158.494L398.445,155.954L400.055,156.68L401.833,158.898L403.334,157.431L405.517,161.097L407.026,162.492L408.522,165.952L408.09,170.892L409.118,175.175L408.563,176.011L410.558,183.864L410.572,187.318L409.515,187.788L408.476,190.617L410.598,194.152L410.964,196.37L414.544,200.277L414.852,197.842L415.913,200.363L419.935,204.362L421.238,203.877L421.815,206.806L424.211,205.8L424.749,211.471L424.107,213.517L422.308,213.137L421.813,209.982L420.54,213.468L418.321,209.492L417.293,211.433L416.118,211.617L416.211,214.264L414.797,214.48L411.782,211.693L411.287,212.898L414.301,216.646L416.317,215.473L418.375,215.609L417.616,217.454L419.527,220.439L418.192,223.07L412.506,224.959L410.238,224.889L405.34,222.077L404.465,223.103L401.1,221.262L403.138,220.223L398.442,217.683L395.821,217.095L396.754,214.106L395.66,212.421L393.414,214.165L393.296,215.957L390.721,218.599L387.38,219.332L384.381,218.646L381.695,221.09L377.944,221.84L372.885,221.043L371.919,222.775L369.919,222.497L371.95,221.379L362.359,220.153L361.335,220.563L358.693,217.957L357.954,214.673L359.43,211.375L359.31,209.057L356.22,206.827L352.127,206.309L348.522,204.331L346.053,201.104L345.799,198.136L346.807,198.779L345.539,194.405L346.132,192.903L366.208,198.869L365.714,201.27L367.797,201.501L368.117,199.364L380.187,202.212ZM398.494,117.287L400.782,116.386L401.549,115.033L400.55,112.998L399.484,112.707L400.336,108.909L402.326,107.118L404.109,104.512L405.655,104.189L406.181,107.069L405.161,107.502L405.419,110.388L406.36,113.144L404.242,116.511L406.597,116.575L407.048,118.034L405.997,118.971L408.977,119.683L409.276,121.606L409.712,118.995L411.012,117.398L413.848,118.901L414.544,120.56L414.509,123.974L412.78,126.266L412.801,128.379L410.84,131.492L410.883,132.552L407.91,132.885L406.768,133.935L404.87,133.297L404.491,131.551L402.812,132.986L401.347,133.022L400.289,130.448L396.785,132.982L395.164,132.699L397.357,122.704L401.208,124.254L401.836,122.437L401.218,120.371L398.377,117.828ZM405.474,85.121L406.635,86.072L404.932,87.631ZM407.371,76.336L408.516,78.124L408.859,80.187L407.886,82.36L406.176,81.614L407.292,76.577ZM663.104,296.193L660.055,295.448L661.249,294.371L663.361,295.198L663.082,295.608ZM577.353,391.901L578.865,390.422L579.543,386.594L580.656,385.33L582.351,389.578L581.588,389.717L580.467,395.248L578.964,395.388L578.674,392.236L577.142,396.88L575.976,396.015ZM584.727,186.042L584.386,185.934L582.506,186.637L580.694,189.636L583.455,187.131L586.865,187.63L588.25,184.636L589.523,184.835L588.993,186.46L590.468,185.907L593.224,186.585L594.77,188.356L590.131,190.66L586.927,189.956L582.824,191.053L587.769,191.276L586.07,192.035L590.661,192.579L589.622,194.163L591.987,196.03L585.228,198.319L586.896,198.566L591.356,197.885L590.257,199.747L594.919,198.739L598.455,198.791L598.359,200.347L600.146,200.816L602.05,203.263L601.467,200.184L602.662,199.078L604.336,203.282L605.334,201.738L606.78,204.466L606.412,202.2L608.134,200.946L608.768,201.89L610.03,198.99L611.678,199.28L610.677,202.057L611.8,203.417L612.624,201.329L614.714,201.182L619.325,202.976L618.681,204.257L620.124,206.042L616.348,209.214L619.536,207.558L617.767,209.816L620.699,207.547L621.263,204.427L625.286,204.536L624.541,206.361L625.727,209.692L627.272,207.433L628.908,209.37L628.894,206.874L631.921,208.912L629.98,206.676L629.948,204.792L632.516,204.493L637.316,206.714L637.342,209.98L635.729,211.857L638.726,210.956L636.93,213.351L634.77,212.74L632.399,213.389L634.949,214.2L634.384,215.803L636.885,215.552L638.786,216.716L636.651,218.599L638.398,220.126L638.616,222.645L635.11,225.05L632.439,223.072L634.72,225.867L633.815,228.5L637.234,230.615L638.34,235.248L635.553,234.463L635.126,232.752L632.969,234.825L630.621,232.389L631.511,235.717L628.044,233.386L624.596,231.825L624.518,230.277L622.987,230.717L621.988,227.451L623.836,224.591L623.244,223.434L621.306,226.669L618.855,228.349L617.561,226.417L613.375,224.705L611.656,225.003L610.163,223.158L607.486,224.35L610.174,226.75L608.935,227.589L605.36,226.629L607.307,229.056L611.695,230.476L612.275,231.836L608.503,234.032L607.124,231.868L604.802,230.71L603.497,231.551L607.141,233.028L605.442,233.144L607.624,236.115L610.329,237.29L610.374,239.799L612.046,235.527L613.508,235.824L613.381,238.162L615.557,237.604L617.14,241.099L617.069,238.587L618.392,242.009L619.563,242.238L621.811,245.088L620.387,242.107L624.333,242.889L625.13,245.387L625.317,242.21L628.155,242.847L628.896,245.31L629.804,242.284L630.934,243.564L630.087,245.507L633.042,245.801L632.89,247.925L631.232,248.164L635.556,250.143L635.086,251.174L638.392,250.213L638.193,252.501L639.421,250.874L639.783,252.544L641.478,251.93L644.873,257.332L640.762,253.099L638.182,252.97L638.148,253.516L641.377,254.041L643.724,259.059L641.926,258.794L638.91,255.376L638.619,256.912L645.461,263.661L644.273,265L641.221,264.701L644.592,267.15L645.977,269.482L644.231,269.643L642.776,267.147L634.482,267.631L632.585,266.061L631.857,267.452L625.488,264.977L622.469,263.124L624.808,266.068L620.972,264.579L616.435,263.892L615.088,264.995L616.612,266.387L622.559,269.483L623.335,268.164L625.288,270.122L627.652,270.203L632.237,272.417L633.201,273.784L634.464,272.795L638.25,274.634L640.746,276.692L642.405,276.601L642.296,279.602L644.165,280.587L642.473,282.002L638.64,281.429L636.427,282.151L634.255,281.412L626.225,283.378L622.622,282.903L617.694,280.728L618.313,278.929L614.785,279.782L613.22,281.133L611.099,280.222L606.538,280.281L602.122,279.04L601.018,276.815L598.188,276.385L600.984,275.629L602.618,272.841L600.71,273.209L600.299,271.536L597.647,273.063L594.923,269.812L594.629,271.874L592.991,272.106L590.288,269.899L590.009,268.495L587.222,266.936L587.914,269.506L584.798,264.861L584.908,267.949L583.699,264.688L581.967,264.67L582.924,268.582L580.741,263.286L579.027,266.305L578.636,269.237L571.104,268.099L570.07,273.181L567.287,274.588L567.594,275.604L564.507,274.865L563.439,276.099L559.862,275.163L556.789,271.86L556.833,269.399L555.932,267.568L556.649,265.959L559.784,262.79L558.171,261.414L558.035,259.426L562.645,258.861L568.67,259.897L571.055,261.24L570.51,263.213L572.853,265.929L573.36,265.392L571.821,262.047L570.031,260.144L567.164,258.826L571.619,258.327L571.615,256.279L574.681,256.129L576.884,252.319L580.547,252.284L578.227,249.034L575.592,247.954L571.675,244.8L575.318,237.46L576.654,233.456L576.426,229.504L578.42,227.625L578.43,225.279L577.22,224.848L575.901,222.304L573.807,220.426L573.604,219.046L571.307,217.805L569.488,213.792L565.466,214.034L563.885,213.076L563.852,209.309L561.199,209.162L563.529,211.06L562.048,212.203L560.232,211.503L558.99,212.485L558.419,210.921L560.087,211.364L558.019,207.981L556.268,207.811L557.329,205.638L555.633,206.767L555.755,208.606L553.447,207.291L553.455,209.414L550.689,213.089L549.234,213.721L548.907,210.898L547.809,209.179L548.667,208.233L551.017,208.252L552.461,206.608L551.245,203.994L545.64,201.867L542.418,201.21L544.021,200.05L543.322,198.64L540.163,198.697L539.378,199.482L537.976,194.416L536.664,193.608L534.46,194.904L531.927,191.998L530.02,191.328L530.037,192.746L528.569,192.385L528.274,194.005L531.354,194.193L533.939,198.142L533.284,200.11L529.68,201.662L528.063,200.098L525.806,200.468L522.087,199.752L518.703,200.208L520.615,201.557L521.825,201.344L524.639,204.307L524.041,205.06L519.936,202.138L516.385,200.83L519.551,202.834L517.771,204.81L516.296,204.877L512.76,203.162L509.959,204.618L504.793,204.646L501.279,203.783L499.23,204.231L502.12,205.401L499.504,205.7L495.229,202.778L494.904,201.134L493.552,201.748L492.498,199.781L491.535,200.998L492.949,202.436L489.085,202.22L488.962,203.682L486.735,202.567L488.643,202.516L484.414,200.846L480.192,194.85L481.272,194.258L479.343,192.223L481.511,192.907L483.715,192.306L485.376,193.564L489.931,193.118L490.194,192.236L487.788,190.553L487.208,188.932L486.179,189.724L477.901,188.926L476.782,187.1L476.661,184.879L477.343,182.581L475.736,180.493L476.092,178.224L477.778,176.673L475.917,175.457L476.264,170.76L477.093,170.073L476.879,167.484L478.161,167.963L477.649,163.7L478.46,160.572L480.672,156.24L482.962,153.151L487.042,150.705L489.814,150.112L493.611,150.182L494.922,150.946L494.612,152.169L492.409,154.869L491.014,158.216L489.249,165.695L489.637,168.142L491.505,169.944L492.092,171.504L491.564,174.385L492.179,177.217L493.95,180.118L497.428,183.712L500.089,184.49L500.908,186.604L499.441,186.851L497.987,188.487L495.995,188.921L495.141,190.506L492.442,191.989L494.92,191.57L496.995,189.13L501.191,188.26L501.229,191.72L502.142,190.835L501.173,186.436L501.925,183.563L500.555,180.691L498.146,181.281L496.38,179.74L496.154,178.07L493.979,176.582L496.099,175.457L495.755,172.827L497.728,172.685L502.137,175.338L498.055,172.018L497.554,170.941L495.14,169.994L493.907,167.684L493.389,163.911L493.829,162.555L495.51,162.71L499.769,164.242L495.287,161.827L493.714,161.839L494.923,159.863L498.188,160.593L500.748,160.496L497.605,159.897L494.687,158.674L495.778,156.156L498.023,158.162L496.526,155.903L503.061,149.609L508.361,148.728L510.154,150.999L511.55,155.095L513.785,155.754L514.634,159.16L516.936,161.528L516.312,164.04L517.063,166.838L515.63,169.84L517.738,171.015L515.818,171.528L517.324,172.722L518.691,171.405L517.867,169.683L519.574,164.296L521.128,166.455L522.299,165.344L524.11,166.677L524.474,169.448L524.061,171.174L526.481,171.405L525.213,170.062L524.684,167.148L525.521,165.112L529.254,165.765L525.35,164.034L525.144,161.65L527.986,158.345L531.008,157.586L532.457,158.79L539.18,158.825L541.335,161.862L540.272,166.012L541.451,163.727L545.201,163.292L546.201,164.603L546.281,166.931L543.256,169.723L545.427,169.697L545.084,172.917L546.654,173.342L545.558,171.365L545.889,169.415L548.039,166.959L549.432,166.66L548.904,171.049L550.551,169.453L550.727,171.175L554.214,172.604L554.193,170.503L553.888,171.828L552.852,171.629L551.595,169.463L552.744,168.921L552.971,170.628L553.251,169.12L554.194,169.671L554.148,168.599L552.672,168.244L554.414,166.386L559.331,166.83L562.638,169.401L562.282,172.573L559.631,173.468L559.241,176.82L559.971,178.402L563.796,174.941L563.8,172.554L564.927,170.877L567.097,172.779L567.016,176.173L565.715,178.884L564.309,178.921L564.06,180.879L564.888,183.38L564.566,179.463L566.292,179.299L567.727,185.289L566.678,177.728L570.06,172.463L570.674,174.478L569.042,177.096L571.127,176.56L572.104,173.291L574.552,173.089L578.619,173.458L579.337,176.545L575.654,180.105L573.827,183.727L574.91,183.598L573.905,185.634L575.851,184.369L575.262,181.959L579.315,179.169L579.971,179.795L578.01,185.853L580.776,182.051L582.106,179.236L580.885,178.211L581.535,176.28L584.876,177.645L587.512,179.583L589.374,182.204L586.154,182.842L584.458,184.79ZM533.081,312.71L530.816,314.644L528.348,310.079L530.076,306.699L531.092,303.145L532.46,304.136L534.63,302.378L538.537,301.14L540.302,301.421L540.427,304.164L538.533,306.676L536.362,311.154L534.267,313.556ZM559.934,219.058L559.869,221.454L561.027,223.135L562.169,226.756L561.272,229.979L559.154,232.211L553.331,234.181L551.558,231.986L549.663,228.278L549.614,225.882L550.694,219.675L552.365,218.047L556.002,217.215L558.728,217.517ZM406.568,159.238L405.085,156.183L403.096,154.809L405.383,151.805L411.392,152.101L413.714,155.171L412.896,158.856L408.983,165.163ZM525.729,288.405L526.672,291.884L524.407,294.403L523.016,294.596L521.909,299.338L518.032,302.684L515.463,301.429L514.909,296.151L513.406,294.898L510.455,296.36L508.099,296.525L506.962,298.113L505.02,298.023L504.688,295.988L506.064,292.886L510.04,289.811L508.572,287.05L507.648,283.015L508.529,277.935L507.677,272.991L508.013,266.131L510.258,263.385L510.549,265.193L512.222,264.8L513.501,267.401L512.167,268.64L513.769,269.632L515.705,272.836L516.581,268.611L519.518,270.365L520.159,272.108L524.471,272.316L526.145,274.754L529.508,276.486L531.615,276.29L535.932,279.102L537.091,282.589L538.333,282.857L536.108,286.362L539.699,284.664L542.809,284.856L542.501,283.294L545.264,284.881L544.795,286.265L547.819,286.687L546.4,288.183L543.929,292.881L536.64,290.948L534.077,291.55L534.348,289.026L532.91,287.581L529.761,288.522L529.418,285.105L526.399,286.898ZM448.72,220.598L449.864,225.599L453.181,226.111L451.541,228.625L450.055,227.919L447.493,231.544L446.273,231.952L443.627,230.435L441.291,230.628L439.796,228.926L437.904,228.513L437.282,226.35L435.857,227.429L434.111,226.048L433.542,224.354L432.494,226.093L430.519,223.369L431.103,221.85L433.573,221.674L436.803,219.243L435.791,217.415L436.186,215.342L438.847,217.403L437.089,215.078L437.941,212.301L439.486,210.917L442.554,213.857L444.557,216.813ZM532.228,151.905L532.763,154.02L533.779,154.337L533.043,155.832L528.239,156.322L525.052,156.975L521.447,160.076L519.721,160.459L517.812,159.631L516.141,156.991L515.529,154.336L512.912,154.342L511.873,152.034L511.231,148.008L512.539,146.885L517.01,147.9L522.146,145.96L526.474,147.185L527.82,149.127L529.403,149.476L530.251,151.244ZM425.86,174.683L424.772,175.925L423.15,174.575L422.831,172.003L420.205,169.325L419.814,167.099L421.323,163.908L423.263,163.485L425.176,166.448L426.042,169.005L429.709,168.974L429.959,166.992L431.675,165.83L431.038,163.304L429.438,162.954L430.774,160.434L428.511,161.187L425.55,157.606L427.307,156.047L428.585,156.206L429.408,158.092L430.157,156.381L428.196,155.02L429.02,152.828L430.911,152.841L432.434,154.095L431.854,151.745L433.527,151.603L433.848,152.961L435.8,154.646L440.467,153.679L441.267,152.426L443.894,153.097L445.099,155.001L444.892,156.577L443.1,157.94L444.208,160.024L441.759,161.244L439.01,164.975L438.788,166.904L440.561,165.026L443.64,166.373L443.572,167.944L444.664,169.051L445.797,167.313L447.107,171.012L447.75,174.214L446.093,175.77L446.557,176.619L446.545,182.822L444.648,183.221L444.058,184.776L442.329,186.005L438.853,185.306L439.607,187.195L438.729,188.969L436.351,190.802L435.383,189.319L433.971,189.553L433.335,186.694L431.525,182.017L430.73,181.849L428.335,176.984L426.901,177.061ZM447.261,133.43L449.341,130.494L449.8,128.835L453.128,126.652L454.973,127.229L458.539,132.153L458.272,133.083L459.095,137.769L458.468,141.217L454.04,141.707L452.605,140.876L451.791,139.175L449.453,138.884L447.539,137.473L446.661,136.426ZM429.141,126.857L428.849,126.401L424.376,127.655L424.42,124.942L426.075,124.426L426.279,122.282L427.875,121.81L429.418,123.857L427.793,119.143L429.896,116.847L427.316,117.055L427.107,115.919L428.668,113.58L429.999,114.067L431.036,115.575L430.917,117.115L433.417,119.891L434.008,122.152L435.227,121.671L433.96,118.876L435.817,119.173L434.815,117.879L433.112,117.336L434.783,116.331L433.827,115.094L432.574,115.132L431.598,113.139L434.24,111.154L436.434,111.472L438.021,114.28L438.937,111.845L443.215,114.036L442.714,116.496L443.691,118.99L443.076,122.058L443.303,123.296L441.895,125.105L443.986,126.142L443.771,128.534L444.265,130.263L442.672,127.709L441.328,131.846L443.079,134.04L441.547,134.55L441.238,135.827L436.09,136.166L436.362,134.157L435.064,136.234L432.447,135.585L432.334,132.202L433.831,132.421L431.06,130.33L432.445,130.058L431.347,129.12L433.905,129.045L433.119,127.888L434.809,127.746L434.971,126.094L438.271,125.401L432.228,125.981ZM475.526,128.517L476.058,127.594L475.295,125.762L476.423,124.957L478.08,127.547L479.611,125.69L480.696,126.913L480.913,125.026L484.883,127.263L484.227,128.288L487.152,126.981L485.659,125.968L487.508,124.376L488.528,124.522L489.361,123.138L491.12,123.335L493.653,119.812L496.19,120.637L498.611,118.571L503.184,118.572L502.965,120.388L505.732,119.742L508.092,121.253L506.934,122.485L509.566,121.706L510.99,124.192L510.703,125.91L508.188,128.678L509.366,129.21L511.423,128.191L512.714,130.071L509.866,132.55L510.681,134.426L509.477,135.66L506.456,136.364L504.979,138.256L500.323,137.864L498.683,133.894L496.839,133.381L498.083,134.76L498.018,137.883L495.269,139.512L491.084,140.356L490.4,139.849L488.001,141.026L485.267,140.439L486.148,141.423L478.568,142.03L478.578,138.157L477.863,136.147L476.955,139.815L476.464,137.84L475.963,140.658L472.887,142.125L468.523,139.98L469.27,137.163L467.669,139.676L468.29,141.038L466.65,140.972L464.521,139.089L463.897,133.794L462.391,132.774L462.879,128.324L463.846,126.852L462.971,122.529L461.237,120.773L461.098,119.299L459.19,115.62L455.899,117.408L453.493,116.602L452.322,118.041L451.554,117.063L453.142,116.237L449.666,115.469L448.981,113.12L447.391,111.072L446.017,110.81L447.981,109.278L446.383,108.335L446.344,106.597L449.848,105.246L451.799,106.286L454.086,106.743L455.502,107.948L456.905,107.469L458.727,109.88L458.291,114.235L459.207,111.781L460.549,112.151L464.808,110.408L467.99,112.153L468.386,113.547L465.305,113.103L465.212,113.978L468.582,114.399L472.784,115.682L472.676,117.431L466.086,118.311L469.965,119.422L469.665,120.005L466.702,120.183L467.471,121.854L467.832,120.714L470.395,121.363L471.008,120.318L473.967,123.12L473.954,125.533ZM449.634,92.715L446.732,93.204L446.293,94.449L445.545,93.375L445.87,92.379L443.504,90.513L443.831,89.707L446.073,90.002L446.362,89.129L443.36,87.687L442.781,85.094L441.698,83.547L442.888,82.517L442.076,81.23L442.064,79.337L442.692,78.664L444.759,79.036L448.565,81.73L448.185,83.114L449.957,83.24L451.744,84.293L452.661,85.725L451.019,87.506L452.535,89.556L452.01,91.631ZM421.33,71.425L422.332,68.945L422.976,69.613L427.13,69.125L429.297,71.345L429.826,73.437L429.788,76.928L430.304,74.883L432.661,74.02L434.411,76.445L433.602,78.093L434.466,78.855L436.019,78.143L437.391,80.252L436.804,81.163L438.315,81.818L437.238,84.216L437.341,86.173L438.036,86.463L439.496,89.803L439.447,92.684L438.876,93.408L436.454,94.153L434.334,92.763L434.123,89.421L433.24,87.531L430.046,85.935L428.03,86.556L427.03,88.154L426.542,87.028L428.002,86.301L428.358,84.444L425.475,85.012L424.472,86.03L422.896,85.39L421.987,83.939L421.588,81.664L422.998,80.648L426.319,82.198L426.753,77.936L425.722,78.577L424.637,77.682L425.906,76.375L425.47,74.794L424.264,75.024L422.836,77.256L422.332,76.869L423.754,74.129L423.045,73.395L421.204,73.518ZM457.485,82.056L455.58,79.416L457.874,79.39L455.336,78.414L454.13,76.428L456.022,74.913L457.034,73.227L460.965,73.084L465.146,71.631L463.234,71.594L460.286,72.427L458.71,72.007L458.86,70.983L460.945,70.354L458.75,69.845L458.669,68.769L456.183,70.342L454.975,71.907L454.36,70.784L455.182,69.743L453.369,69.349L453.274,70.684L451.219,71.544L451.435,70.59L449.746,69.779L450.158,67.362L452.59,66.568L453.761,64.248L451.328,66.015L449.438,65.965L447.41,62.325L448.661,61.949L447.539,61.368L447.166,58.231L449.022,59.457L452.129,59.878L452.255,58.98L454.152,57.654L452.688,57.114L451.797,58.348L450.67,58.618L450.047,56.701L449.139,57.409L447.536,56.248L449.184,54.523L450.379,54.453L448.818,52.917L449.001,51.502L451.638,51.096L454.337,52.32L454.17,51.295L452.832,51.073L452.79,49.205L450.285,48.017L451.176,46.781L450.361,46.402L450.954,44.715L451.808,43.926L453.073,45.323L454.034,44.002L453.043,43.252L455.991,43.281L455.764,41.474L454.43,41.655L452.876,40.791L453.337,39.089L454.611,39.569L455.51,38.949L458.042,40.711L459.168,42.073L458.975,43.448L460.092,44.932L461.425,48.462L462.408,49.032L462.539,51.218L466.122,51.345L466.953,52.293L466.67,54.904L467.429,56.565L470.007,57.82L468.173,55.001L468.502,52.574L470.512,52.784L471.297,56.369L470.203,57.087L470.554,58.204L472.424,57.9L473.515,60.266L473.659,65.456L475.003,64.048L476.757,65.14L478.094,64.738L478.824,66.616L480.617,68.827L479.234,71.047L476.599,72.987L476.167,74.71L475.248,73.37L475.654,75.356L474.383,79.345L473.423,79.15L472.537,75.189L471.875,75.333L472.532,79.512L473.306,80.37L473.238,82.914L472.635,86.149L472.714,82.851L471.406,80.658L470.816,80.661L471.825,83.397L471.539,87.22L470.697,87.375L467.133,81.095L467.482,83.717L468.079,84.293L469.488,87.751L467.972,86.952L467.127,85.516L466.414,86.146L466.684,88.327L465.026,88.4L461.437,87.642L459.528,85.863L458.242,83.975L458.559,83.268L461.974,82.32L458.679,81.308ZM506.156,87.443L507.707,89.146L506.858,92.88L504.467,94.813L502.697,94.883L501.837,95.677L499.052,95.518L495.816,93.383L495.59,94.774L497.682,95.964L495.714,96.978L496.401,98.738L498.107,96.505L501.966,97.055L503.73,95.84L505.595,97.474L505.082,100.368L506.758,99.992L506.769,101.209L508.14,98.203L509.71,98.475L510.987,100.434L511.427,102.757L509.789,106.424L508.409,104.875L507.54,109.514L506.795,109.387L503.427,112.568L501.784,112.065L502.354,109.396L501.333,108.175L497.966,108.741L497.194,107.072L497.109,110.379L495.363,110.868L492.076,110.946L489.886,108.458L490.196,111.042L488.522,111.212L487.092,109.637L487.829,111.77L489.942,113.159L487.016,113.535L482.762,112.823L483.037,110.657L481.714,112.1L481.773,113.839L479.178,112.572L478.643,114.511L475.802,113.924L474.592,107.708L474.197,109.374L475.302,112.302L474.29,111.046L473.977,113.88L471.044,111.693L471.798,109.939L471.152,107.45L473.66,104.816L474.9,102.798L477.21,103.078L479.219,100.238L476.488,99.282L476.351,97.29L474.317,95.152L474.064,92.792L476.976,90.846L480.345,92.073L481.291,93.193L482.394,96.179L483.844,97.526L487.151,98.48L486.474,97.335L488.228,96.704L490.271,97.144L488.835,95.514L489.965,94.791L491.057,91.14L491.516,87.471L490.463,86.793L489.709,93.316L488.408,95.277L485.608,95.398L484.85,96.475L483.65,94.715L485.229,94.387L483.61,93.583L483.591,91.37L481.673,89.4L483.285,87.488L483.465,83.13L482.897,83.036L481.838,86.9L479.705,87.992L479.455,86.508L478.464,86.02L477.877,87.372L475.647,87.611L475.007,82.692L475.821,81.061L476.113,78.478L476.902,76.901L479.295,76.222L480.607,74.668L485.165,75.082L488.421,76.758L490.109,78.338L488.968,76.388L486.832,75.275L486.698,74.594L489.137,74.485L490.848,73.472L491.031,70.583L489.993,71.265L489.655,73.02L488.546,73.705L487.144,73.089L483.33,73.622L481.723,72.557L482.123,70.817L483.909,72.038L485.489,72.061L482.515,70.104L481.493,66.808L480.204,65.806L479.46,63.933L477.614,62.816L475.111,62.231L475.132,59.067L478.052,59.321L474.718,58.547L473.859,56.409L474.022,53.795L475.369,53.268L477.051,54.104L481.014,53.668L483.286,56.033L486.455,58.643L488.729,62.452L489.344,61.597L491.548,61.739L493.207,60.548L493.504,59.621L490.617,61.108L488.758,60.554L487.648,57.796L488.043,56.923L485.929,56.404L482.37,52.362L485.168,50.408L489.066,48.46L489.598,47.47L494.376,45.08L489.536,46.093L492.375,42.624L494.577,41.136L496.805,40.273L496.5,39.421L493.075,40.354L491.288,41.647L490.567,39.364L492.218,33.795L493.249,32.682L493.357,31.292L490.993,34.411L489.529,39.77L490.043,40.104L489.562,42.63L486.345,46.589L482.411,48.817L481.703,47.121L483.759,45.578L483.761,43.795L482.651,45.613L480.985,46.606L479.798,45.981L480.115,49.001L478.713,50.042L476.931,50.415L474.314,50.31L472.567,49.46L472.854,47.662L474.158,43.875L475.401,42.43L480.931,39.631L481.674,38.683L477.617,40.929L474.859,41.929L473.232,43.298L471.471,47.596L471.221,49.255L469.031,48.755L465.472,46.033L465.659,44.845L467.638,43.913L469.654,43.928L471.798,43.247L474.168,39.94L475.837,38.214L474.587,38.162L473.259,39.361L471.958,41.326L469.973,42.516L468.858,42.463L464.158,44.018L462.667,41.616L463.432,40.375L464.881,40.171L463.484,38.87L464.979,37.613L465.619,36.171L467.783,35.33L466.598,34.749L465.351,35.61L462.087,38.537L461.162,37.176L463.834,34.257L462.629,34.502L461.26,33.767L460.712,35.643L459.686,35.979L458.371,34.693L459.281,32.474L460.343,32.397L460.313,31.218L462.975,29.742L464.024,31.283L465.152,27.34L466.545,26.384L467.968,26.666L468.384,28.465L469.295,27.877L468.908,26.937L470.691,26.746L472.732,29.479L471.729,27.582L473.847,27.166L469.244,25.563L468.747,24.238L471.237,23.467L471.771,22.714L470.507,20.043L472.644,19.422L472.294,20.354L475.168,21.179L477.385,24.369L477.172,25.282L479.422,25.02L478.273,24.657L476.936,22.714L476.84,21.659L478.154,22.196L480.292,23.821L484.21,25.328L485.88,27.34L486.516,27.243L484.378,24.949L484.365,24.411L481.803,23.746L477.083,20.196L477.138,18.161L479.192,17.852L477.259,16.851L477.436,15.323L478.907,15.746L480.303,16.988L480.803,16.462L478.007,13.296L478.068,12.669L480.479,12.789L481.358,14.487L481.569,13.683L483.309,14.059L484.467,13.407L481.446,12.892L481.618,11.821L480.112,11.578L480.24,10.313L481.622,9.346L482.742,10.706L482.859,9.572L483.614,10.679L484.694,9.413L486.342,9.838L488.336,12.499L490.029,13.224L490.157,15.61L490.755,12.436L489.159,11.968L487.167,9.383L485.327,8.122L487.367,6.394L489.441,5.94L491.252,6.034L492.67,7.868L495.913,9.523L492.689,6.804L493.124,4.097L493.626,3.414L495.396,2.742L496.443,5.055L498.154,5.452L496.154,3.879L496.834,2.03L498.81,1.143L499.76,2.988L500.447,1.677L501.032,2.586L502.297,1.734L502.609,2.471L503.528,1.614L505.867,1.026L506.262,1.723L505.526,4.281L503.89,6.558L503.94,7.478L505.938,6.065L507.551,1.982L508.805,2.62L508.464,0.559L509.173,0.047L509.642,1.152L510.7,1.952L510.67,0.468L511.973,0L512.474,1.766L514.653,2.847L515.437,3.776L517.985,2.871L519.671,3.877L520.789,6.659L519.93,8.214L520.445,10.111L518.501,16.527L516.171,17.058L515.298,18.658L516.793,18.208L516.152,19.475L514.584,20.308L511.619,22.618L511.213,23.727L513.606,21.636L515.41,22.082L513.209,25.187L512.773,26.522L510.111,30.21L511.303,29.357L517.371,21.199L519.44,19.128L520.263,21.488L519.611,24.006L518.646,25.209L518.48,28.602L516.684,34.274L516.134,38.317L516.389,40.586L515.942,41.474L514.366,42.131L513.616,40.426L512.021,39.825L513.918,41.343L514.14,42.432L515.787,43.139L515.58,44.404L514.205,44.689L511.539,48.275L513.062,47.484L514.85,45.533L515.561,47.73L514.137,49.122L515.625,49.425L515.076,52.18L513.526,54.004L511.493,54.012L510.56,52.657L507.11,52.522L505.784,53.711L509.492,53.92L509.979,53.476L511.715,56.708L509.908,58.831L508.141,59.367L506.948,59.094L507.639,60.872L506.185,60.945L503.917,60.063L505.363,62.006L502.777,62.668L501.521,61.253L500.832,61.653L501.841,63.409L500.218,63.415L501.848,64.332L505.011,63.246L505.738,63.617L509.829,62.48L509.191,63.297L510.715,65.254L509.071,65.87L506.492,65.504L505.52,64.283L500.16,66.198L505.781,65.462L502.298,68.091L501.118,67.901L501.1,72.104L502.002,69.031L504.523,67.237L507.384,67.212L507.528,68.095L506.028,69.422L509.21,68.218L510.939,68.446L511.619,69.815L512.011,72.075L510.69,73.636L507.306,74.238L508.944,74.984L512.175,75.4L511.447,78.474L508.302,78.534L507.625,79.524L510.091,79.954L512.007,79.678L511.646,82.224L510.46,81.611L509.014,83.883L508.002,83.53L504.808,84.183L504.267,85.176L506.01,86.186L507.208,85.846Z" fill="#EBE9FC" stroke="#010104" stroke-width="0.5" vector-effect="non-scaling-stroke" fill-opacity="1" stroke-opacity="1"></path><path class="state transition-colors duration-200 cursor-pointer is-selected" d="M389.233,99.996L389.71,101.927L388.654,102.666L384.92,100.634L386.937,99.349ZM281.582,322.092L256.44,311.587L255.283,300.454L256.821,299.481L257.128,296.772L251.471,296.968L248.563,293.8L247.251,294.664L241.721,292.234L243.123,288.659L244.498,282.758L242.466,280.915L241.007,277.362L240.534,270.042L238.815,270.115L237.085,268.23L237.398,265.109L239.327,263.554L238.38,260.942L238.514,257.036L240.971,254.771L239.741,253.809L239.706,250.066L242.562,249.046L242.499,245.286L243.248,244.424L241.082,240.048L242.181,233.176L241.169,231.889L238.285,231.6L240.052,230.257L239.387,226.958L237.262,224.334L240.418,221.986L239.434,219.223L240.668,218.045L245.37,215.745L245.372,211.374L247.218,210.849L246.818,209.142L243.859,209.104L244.995,208.074L241.91,207.448L241.512,205.015L243.843,202.719L242.814,201.774L245.804,199.48L245.988,196.782L246.893,196.028L247.131,193.007L248.176,193.403L237.308,186.086L238.513,183.676L240.639,181.837L241.808,179.399L242.029,176.728L251.856,162.72L253.235,164.196L254.48,168.739L255.422,167.439L255.438,165.214L254.307,164.506L255.199,161.937L257.741,159.786L260.668,160.781L261.2,159.918L263.597,160.455L264.516,162.069L267.458,159.152L266.837,161.884L268.456,161.444L267.873,163.411L263.854,165.202L267.809,165.001L269.585,166.065L273.027,163.796L274.317,165.093L275.097,163.751L278.299,165.224L281.633,163.955L281.535,166.188L283.84,164.013L286.169,163.576L289.006,166.167L291.273,164.357L291.381,166.746L289.551,168.051L284.094,168.378L280.667,170.109L280.81,168.81L275.925,167.761L274.046,169.547L272.519,169.448L270.859,171.014L271.293,169.11L268.086,170.897L266.859,170.615L264.506,172.433L267.058,174.958L268.448,171.265L274.499,171.148L276.88,169.384L278.564,169.975L278.502,172.017L280.387,170.498L278.386,173.816L284.304,169.877L290.671,170.926L290.085,173.464L295.138,171.176L295.629,169.61L297.4,169.065L300.001,169.621L298.445,167.927L298.385,166.474L299.717,164.607L299.874,162.86L301.716,167.817L302.086,170.496L300.81,177.752L301.994,183.999L303.748,186.372L305.354,186.147L304.717,183.729L306.18,184.824L305.527,182.662L306.334,181.594L308.164,181.671L310.024,179.38L309.966,178.164L313.49,177.632L311.792,179.743L311.715,181.484L310.504,183.159L312.409,183.901L308.582,187.855L310.828,188.357L312.102,189.585L315.199,188.804L316.86,185.234L318.215,184.783L322.283,186.839L324.873,188.681L327.17,192.878L319.019,213.581L319.132,213.945L352.04,262.14L362.405,264.644L367.266,273.98L369.118,276.17L373.314,278.021L410.257,290.394L411.811,290.894L406.254,351.013L349.915,342.384ZM368.435,108.506L370.062,108.429L372.746,106.815L373.199,107.555L369.872,112.014L366.352,114.422L364.056,112.081ZM392.226,82.058L392.014,83.105L393.256,85.21L393.327,86.656L391.155,87.673L389.698,84.845L389.334,83.105ZM387.827,166.651L386.956,165.535L387.916,166.238ZM388.477,163.641L388.273,164.771L387.935,164.142ZM388.617,162.992L386.868,161.307L386.484,158.679L389.345,159.623ZM398.377,117.828L398.285,117.493L398.494,117.287ZM399.484,112.707L398.432,111.339L398.86,109.409L400.336,108.909ZM397.357,122.704L395.164,132.699L392.384,133.336L392.491,134.112L387.679,136.372L384.376,136.869L382.034,136.513L379.681,135.119L377.823,130.919L378.889,130.08L381.983,129.735L385.124,128.294L389.861,129.104L392.941,126.181L391.131,126.7L387.333,126.776L387.83,125.638L384.692,126.471L381.219,125.843L382.901,122.304L384.667,121.515L382.022,121.613L379.363,125.444L377.061,126.302L376.321,125.57L376.946,123.137L374.259,125.454L372.736,123.502L373.372,121.39L371.473,122.131L368.786,120.077L369.376,117.817L371.252,116.506L375.385,117.781L377.444,116.812L378.676,116.93L379.885,115.624L375.496,116.334L371.699,115.166L373.737,112.539L381.171,113.566L381.345,112.976L376.515,112.142L374.918,111.111L376.034,110.372L375.642,108.885L376.722,107.614L378.174,107.431L382.084,109.016L381.351,107.831L379.616,107.365L379.65,105.565L381.524,104.462L385.268,104.927L385.924,105.565L385.628,109.845L389.297,109.564L390.833,111.557L390.577,113.592L392.39,115.313L390.521,116.436L393.078,117.127L392.467,120.521L392.73,121.973L395.601,121.814ZM405.474,85.121L404.932,87.631L402.105,87.898L402.171,89.517L404.041,89.741L403.853,91.81L402.838,93.759L400.456,94.693L399.209,94.018L396.188,94.95L395.165,93.985L395.042,92.474L393.46,91.091L394.793,85.563L398.201,84.704L403.309,84.512ZM407.371,76.336L407.292,76.577L406.176,81.614L405.095,82.084L403.672,81.313L402.92,79.978L401.693,81.495L400.667,81.312L399.842,79.425L396.836,80.271L396.262,79.142L396.88,78.202L400.594,76.76L401.537,77.189L403.998,75.383L406.388,74.894ZM387.699,167.241L380.187,202.212L368.117,199.364L367.797,201.501L365.714,201.27L366.208,198.869L346.132,192.903L345.539,194.405L346.807,198.779L345.799,198.136L344.428,195.922L344.578,192.571L347.419,191.379L352.269,191.496L361.291,192.757L364.496,194.144L368.408,196.478L370.845,195.863L370.299,194.493L373.185,195.947L371.544,192.894L368.377,191.28L365.963,188.59L363.773,187.426L362.72,187.876L349.819,186.566L350.948,185.172L348.454,184.16L347.91,185.114L345.191,179.688L345.195,176.893L348.464,175.747L350.035,176.03L356.942,175.382L356.689,174.547L359.176,174.004L360.36,175.309L360.549,173.985L358.929,173.424L350.511,173.339L347.867,172.3L347.685,170.836L348.795,170.143L351.034,170.408L349.62,168.521L347.667,169.172L347.781,168.001L345.211,167.586L345.595,165.357L346.779,163.292L349.378,161.03L352.091,160.713L352.526,159.588L351.151,157.247L353.807,154.986L355.51,154.555L358.502,152.19L360.754,152.174L364.233,151.008L367.163,150.589L371.9,149.22L373.004,150.231L373.411,153.619L371.848,158.207L368.656,160.122L369.552,161.071L370.818,160.301L372.36,161.108L374.109,159.833L373.457,159.155L374.915,157.296L376.901,156.2L380.347,158.833L383.384,162.244L382.556,164.406L379.48,166.52L380.033,167.896L381.71,166.624L382.761,168.668L382.904,166.844L384.989,164.909L386.425,165.417ZM352.374,126.277L354.455,129.381L357.877,131.773L357.491,134.808L359.543,132.184L362.301,132.256L364.58,133.81L365.952,136.576L368.042,142.735L368.926,143.836L369.344,147.008L367.09,148.158L363.804,148.646L359.843,150.343L349.746,153.592L347.611,157.242L345.25,158.162L343.251,157.205L343.173,158.725L341.029,160.736L339.88,164.356L337.703,166.796L333.711,166.947L332.996,165.227L329.883,167.249L324.782,167.871L324.327,164.984L324.719,161.872L324.354,157.82L322.486,155.306L321.037,152.163L318.388,150.752L319.777,149.084L324.204,145.06L326.03,144.656L327.563,140.235L330.099,140.753L329.642,137.871L330.812,137.416L333.315,134.235L335.494,133.298L336.281,131.655L338.004,130.768L337.081,129.016L337.263,125.42L338.231,121.976L337.892,121.28L343.815,122.36L346.357,123.198L350.704,123.497L352.079,124.845ZM383.578,87.668L385.652,91.645L385.667,92.3L381.668,93.921L381.783,95.327L382.945,96.927L381.788,97.606L381.334,100.582L379.331,101.833L376.587,101.786L376.294,104.358L374.368,105.279L372.934,102.505L374.586,98.494L375.644,97.482L373.621,96.909L372.834,97.485L372.785,99.832L370.118,100.125L370.761,102.657L369.475,103.179L368.759,104.692L367.301,105.078L367.719,101.415L366.53,102.354L366.029,105.856L363.835,107.86L363.069,106.974L361.66,107.221L362.66,105.628L361.908,104.738L362.713,102.868L362.272,101.832L361.017,103.523L360.517,105.38L359.299,105.222L358.238,102.658L357.272,102.322L355.617,103.363L355.248,102.268L356.4,100.95L356.254,99.68L354.844,100.147L356.098,98.605L358.534,96.893L361.402,97.619L364.241,94.964L367.362,93.863L369.261,91.537L372.476,89.761L373.249,88.521L375.12,88.012L378.26,88.592L379.707,90.793L382.002,89.91L380.757,88.386Z" fill="#bfdbfe" stroke="#2563eb" stroke-width="1.5" vector-effect="non-scaling-stroke" fill-opacity="1" stroke-opacity="1"></path><path class="state transition-colors duration-200 cursor-pointer" d="M281.582,322.092L349.915,342.384L316.468,496.86L316.538,496.936L292.904,491.352L278.899,487.582L278.208,484.461L276.902,483.84L275.046,477.633L276.982,475.147L277.967,466.787L276.796,463.27L275.092,463.01L274.451,460.077L272.345,457.565L273.084,455.985L270.357,452.581L267.61,441.586L265.046,442.061L263.957,434.873L261.416,434.578L260.168,431.954L261.355,430.416L259.596,428.615L257.362,429.596L258.035,425.114L256.541,421.5L256.498,417.768L255.129,415.507L254.335,416.794L252.802,415.221L252.635,412.823L249.894,410.848L249.58,407.626L250.927,408.326L250.214,404.066Z" fill="#EBE9FC" stroke="#010104" stroke-width="0.5" vector-effect="non-scaling-stroke" fill-opacity="1" stroke-opacity="1"></path><path class="state transition-colors duration-200 cursor-pointer" d="M747.625,347.995L747.492,350.82L745.763,351.989L743.058,357.525L740.094,359.142L739.111,360.988L740.476,364.108L736.485,363.47L733.583,364.027L740.949,364.306L740.099,367.587L741.208,367.956L742.751,363.485L747.151,356.852L746.235,356.1L746.618,353.339L750.553,348.147L748.17,348.981L748.869,346.912L754.436,343.903L760.503,347.751L758.605,351.008L760.377,350.542L761.181,352.568L761.895,350.098L760.685,348.698L764.641,344.089L764.613,346.045L770.674,345.536L772.157,344.356L773.375,347.553L775.064,348.106L774.025,351.289L776.274,351.167L779.253,354.078L776.639,357.632L779.572,355.882L781.587,355.919L781.235,358.124L784.065,359.984L783.768,363.527L780.666,370.428L780.822,373.199L779.276,375.46L774.572,368.449L724.157,398.781L721.562,394.578L718.242,394.121L718.548,392.214L722.264,388.678L719.837,388.233L716.405,391.131L716.756,393.293L718.479,395.405L720.313,401.083L719.355,401.114L721.633,404.283L720.586,407.241L717.57,406.054L714.184,407.58L709.644,404.674L705.951,407.1L702.035,405.309L702.334,407.539L700.278,405.432L701.174,404.604L699.309,401.813L700.085,401.109L696.387,396.111L695.485,398.123L695.815,399.346L696.078,400.075L695.25,402.637L690.479,401.537L688.429,398.764L691.623,397.662L690.397,392.932L686.113,392.523L683.185,389.965L679.542,388.122L679.915,385.544L677.678,382.796L679.116,381.159L678.604,379.702L680.945,380.375L680.838,376.509L676.263,373.429L683.632,375.055L680.746,368.84L681.299,367.986L685.369,370.088L689.052,369.996L691.239,371.617L693.007,370.406L694.127,366.467L697.546,366.911L699.915,366.085L703.514,366.804L706.284,365.135L704.075,364.102L703.666,361.777L705.458,361.422L703.635,357.105L702.58,356.666L703.896,353.946L700.88,355.165L699.082,351.04L696.905,349.526L699.075,346.825L694.668,348.175L693.89,345.651L692.166,345.694L691.288,344.024L693.06,342.888L689.738,340.777L690.191,337.338L688.771,332.622L686.19,326.923L683.029,326.868L678.015,322.784L679.825,316.976L678.093,317.228L677.107,315.22L680.071,312.974L677.802,311.787L675.972,314.754L673.94,313.693L669.911,314.982L669.561,313.443L672.594,312.803L669.784,309.357L669.039,305.834L667.874,307.762L665.671,306.976L664.546,303.522L664.723,301.513L662.482,300.878L663.928,299.011L661.48,297.956L662.627,296.903L664.996,297.661L664.982,298.995L667.729,299.218L669.671,303.047L671.942,302.978L673.665,305.126L672.098,306.422L675.864,305.15L678.031,306.588L676.718,310.031L678.505,307.736L683.391,309.629L684.9,311.283L683.569,315.298L685.504,314.845L687.824,312.354L689.561,316.708L686.903,318.507L687.623,320.663L688.125,318.241L690.957,316.065L694.404,318.382L696.272,317.324L698.87,317.804L698.842,319.11L695.949,318.794L698.134,321.277L700.983,321.207L699.887,323.396L700.193,325.864L702.499,326.178L705.526,324.976L705.797,329.991L704.265,330.936L705.643,332.932L699.768,333.673L705.276,333.412L711.468,332.563L705.821,334.933L705.645,336.321L710.49,334.36L709.801,336.392L706.636,337.928L708.134,338.433L712.19,336.032L713.986,337.716L714.28,335.563L716.083,337.24L716.821,339.475L722.56,337.573L722.188,339.448L725.979,341.162L725.67,348.233L727.419,342.567L728.432,343.541L729.543,340.511L731.056,343.255L733.428,341.305L732.536,346.366L733.897,342.335L734.095,339.638L736.096,339.289L739.165,342.521L747.496,339.13L749.626,339.569L750.965,338.401L753.429,339.317L751.519,342.711L748.091,345.302L748.582,346.605ZM747.625,347.995L747.59,347.666L747.253,348.515L745.977,350.242L741.881,354.494L742.796,354.413L746.356,350.422L747.253,348.515ZM706.44,327.511L707.084,329.589L709.046,331.177L706.446,330.841ZM833.866,407.895L833.831,407.995L833.654,407.901ZM833.866,407.895L833.515,403.744L834.889,407.516ZM663.361,295.198L663.3,295.892L663.104,296.193L663.082,295.608ZM663.157,296.43L664.48,296.67L662.627,296.903ZM662.627,296.903L662.571,296.931L662.627,296.903ZM833.654,407.901L832.771,408.174L831.076,411.046L829.979,410.872L829.991,415.242L830.873,419.206L827.457,422.802L825.34,423.325L824.577,420.843L827.153,417.927L826.86,412.371L828.604,409.712L828.394,407.488L826.236,410.597L823.209,410.095L824.692,413.691L821.045,416.549L821.298,414.021L817.495,415.718L812.774,420.845L807.736,422.558L804.569,424.867L801.654,425.334L793.854,432.675L791.921,433.033L789.044,430.219L791.102,420.407L792.363,417.464L789.469,418.317L785.564,422.197L786.79,418.382L789.258,417.669L788.403,416.01L787.41,409.603L791.262,409.823L789.528,408.235L790.723,406.529L787.712,407.129L786.698,404.792L788.528,402.102L786.565,400.314L785.445,393.046L783.246,383.552L784.594,380.493L782.982,374.681L787.094,366.498L787.661,368.279L790.516,364.888L791.223,369.197L787.503,370.419L788.993,372.283L791.496,371.115L792.223,372.569L793.334,390.207L796.336,396.403L796.178,391.305L797.238,389.782L796.761,385.613L798.359,387.92L799.74,385.723L801.473,386.188L802.909,383.789L803.736,384.96L801.149,390.639L803.055,389.457L802.885,394.166L804.187,391.657L806.959,391.978L807.052,390.082L810.095,389.757L811.351,392.096L814.37,388.825L814.782,383.569L816.483,384.622L818.539,382.067L825,381.495L825.556,384.748L823.934,387.083L827.444,391.943L830.889,390.714L830.753,388.412L832.912,388.582L832.604,385.651L834.221,386.226L834.845,390.279L833.297,390.927L833.09,393.639L835.355,401.704L839.202,401.906L837.809,399.189L837.141,394.719L839.288,391.569L840.802,399.112L842.927,400.899L843.991,396.978L842.858,394.51L846.694,396.488L847.311,400.577L850.63,406.923L849.906,410.363L848.568,409.484L847.284,412.649L844.908,411.112L842.393,406.439L841.639,413.398L839.747,413.37L837.774,405.681L833.241,401.477L831.311,401.633L832.521,407.537Z" fill="#EBE9FC" stroke="#010104" stroke-width="0.5" vector-effect="non-scaling-stroke" fill-opacity="1" stroke-opacity="1"></path><path class="state transition-colors duration-200 cursor-pointer" d="M349.915,342.384L406.254,351.013L400.878,410.534L397.977,509.001L387.814,508.088L316.538,496.936L316.468,496.86Z" fill="#EBE9FC" stroke="#010104" stroke-width="0.5" vector-effect="non-scaling-stroke" fill-opacity="1" stroke-opacity="1"></path><path class="state transition-colors duration-200 cursor-pointer" d="M406.254,351.013L457.609,352.889L457.573,357.89L458.359,362.228L457.799,366.887L460.692,371.004L462.363,369.784L470.11,370.394L470.442,373.501L473.192,379.854L473.674,382.837L476.617,389.936L474.727,395.816L476.317,394.554L478.39,394.675L487.396,390.593L490.909,390.788L497.037,393.855L504.079,394.922L496.866,404.822L486.762,418.545L477.385,431.192L468.286,443.189L456.406,455.679L456.963,505.584L456.864,511.034L397.977,509.001L400.878,410.534L406.109,352.594Z" fill="#EBE9FC" stroke="#010104" stroke-width="0.5" vector-effect="non-scaling-stroke" fill-opacity="1" stroke-opacity="1"></path><path class="state transition-colors duration-200 cursor-pointer is-selected" d="M695.815,399.346L696.387,396.111L700.085,401.109L699.309,401.813L701.174,404.604L700.278,405.432L702.334,407.539L702.035,405.309L705.951,407.1L709.644,404.674L714.184,407.58L717.57,406.054L720.586,407.241L721.633,404.283L718.479,395.405L716.405,391.131L719.837,388.233L722.264,388.678L718.548,392.214L718.242,394.121L721.562,394.578L724.157,398.781L774.572,368.449L779.276,375.46L777.392,375.075L774.377,377.573L773.385,380.855L771.176,382.288L768.409,389.563L769.844,391.686L767.85,395.819L766.855,402.111L765.279,405.028L759.39,407.789L753.446,413.878L751.388,412.924L740.3,418.083L738.624,420.145L735.018,420.52L731.708,423.01L729.537,423.268L726.476,425.718L723.062,426.582L717.019,431.715L713.823,432.072L712.494,434.035L710.5,440.597L711.829,445.982L711.4,448.03L705.841,451.367L704.366,453.606L705.779,454.088L702.582,456.628L700.211,462.376L699.5,469.997L697.136,473.216L694.8,472.307L684.728,473.436L687.553,474.048L689.988,472.995L694.543,472.804L697.956,473.392L698.103,478.872L696.919,483.729L694.955,485.382L694.553,490.682L692.886,492.912L690.719,498.249L686.076,500.764L683.543,503.862L681.237,508.661L677.993,511.273L677.32,513.898L680.689,510.799L681.949,507.493L686.516,500.919L687.873,500.978L691.171,497.941L693.496,492.537L693.102,495.358L696.775,491.472L698.911,483.294L703.346,469.388L708.423,460.586L719.226,447.913L722.134,445.048L727.357,441.61L732.744,439.631L737.076,439.424L741.199,440.585L742.512,441.994L738.631,442.059L743.508,443.707L743.321,447.393L740.656,450.059L741.077,452.003L736.701,457.455L732.97,457.5L731.251,456.54L730.296,459.082L726.603,460.738L724.322,463.559L720.161,467.503L717.522,466.736L713.151,468.794L711.205,470.786L713.332,475.765L712.526,478.034L708.804,481.967L708.061,480.255L706.016,480.81L703.468,493.542L704.435,497.719L704.137,503.339L705.26,504.644L705.126,508.366L703.301,511.595L703.08,516.916L701.411,515.95L698.745,517.92L698.497,522.322L667.151,534.008L669.265,532.205L675.209,524.432L676.495,524.234L676.22,519.12L677.208,514.647L675.932,519.93L675.771,524.104L671.854,525.349L672.83,526.487L669.672,529.693L667.988,528.728L667.642,524.873L664.754,524.571L658.899,527.722L653.771,532.041L651.625,530.998L648.931,532.47L645.507,531.867L642.701,528.22L641.504,529.905L633.017,526.267L622.324,526.976L618.884,524.83L612.4,518.228L609.625,513.404L609.8,511.62L597.648,464.122L599.76,465.855L597.559,463.775L596.143,458.238L595.697,456.817L596.523,453.657L597.706,455.377L600.268,455.752L601.862,458.654L601.544,453.135L598.823,451.52L599.448,448.649L601.363,445.797L601.242,442.077L599.793,439.702L597.703,438.483L597.163,436.171L594.637,433.837L593.701,428.813L591.769,427.424L591.06,420.02L589.896,417.941L587.121,418.481L585.304,414.979L582.353,412.923L591.984,404.772L595.859,400.073L599.506,393.056L598.945,392.667L601.337,386.536L601.305,383.279L599.576,376.412L596.892,369.962L593.581,364.872L590.504,361.611L585.491,358.474L581.9,357.718L576.867,354.833L576.272,351.641L577.657,350.043L578.183,346.6L579.915,344.892L578.667,342.372L578.574,339.464L581.585,336.822L580.289,335.545L581.14,333.949L578.094,333.852L579.404,332.495L575.966,329.139L576.887,327.162L574.594,326.35L575.626,324.343L573.745,324.939L571.48,323.925L572.979,320.206L571.725,315.12L573.16,314.221L570.703,311.742L569.756,312.132L568.091,309.728L566.057,304.187L569.148,299.03L572.623,298.686L582.447,299.777L583.943,298.491L588.179,299.511L588.14,298.097L589.978,297.476L593.62,292.788L597.295,294.038L598.781,295.377L601.817,295.265L602.884,297.63L605.565,297.505L608.06,299.704L610.388,299.249L609.953,302.632L614.72,305.198L621.243,304.421L623.289,303.133L625.562,305.563L626.81,301.271L629.36,304.594L627.848,307.026L628.03,309.374L629.549,311.862L631.136,312.723L631.271,316.113L627.665,317.296L626.1,318.635L631.489,316.468L633.425,317.31L634.243,321.69L636.101,324.928L636.999,323.587L639.175,324.574L637.683,327.004L640.506,325.537L640.984,326.804L638.281,327.58L639.632,329.754L637.025,332.645L638.934,334.651L639.31,332.001L640.927,329.135L643.919,327.515L647.63,327.995L650.163,330.599L651.471,336.269L651.155,338.021L648.138,340.634L646.975,342.677L651.336,338.263L651.858,336.483L650.645,330.705L655.293,330.397L655.927,334.316L658.875,327.296L660.468,325.887L660.424,320.948L664.948,322.605L662.709,321.015L664.019,315.714L662.095,313.582L664.44,312.216L661.864,310.084L662.46,309.129L660.399,307.003L661.729,304.559L661.868,302.313L660.754,296.675L663.157,296.43L662.627,296.903L661.48,297.956L663.928,299.011L662.482,300.878L664.723,301.513L664.546,303.522L665.671,306.976L667.874,307.762L669.039,305.834L669.784,309.357L672.594,312.803L669.561,313.443L669.911,314.982L673.94,313.693L675.972,314.754L677.802,311.787L680.071,312.974L677.107,315.22L678.093,317.228L679.825,316.976L678.015,322.784L683.029,326.868L686.19,326.923L688.771,332.622L690.191,337.338L689.738,340.777L693.06,342.888L691.288,344.024L693.89,345.651L694.668,348.175L699.075,346.825L696.905,349.526L699.082,351.04L700.88,355.165L703.896,353.946L702.58,356.666L703.635,357.105L705.458,361.422L703.666,361.777L704.075,364.102L706.284,365.135L703.514,366.804L699.915,366.085L697.546,366.911L694.127,366.467L693.007,370.406L691.239,371.617L689.052,369.996L685.369,370.088L681.299,367.986L680.746,368.84L683.632,375.055L676.263,373.429L680.838,376.509L680.945,380.375L678.604,379.702L677.678,382.796L679.915,385.544L679.542,388.122L683.185,389.965L686.113,392.523L690.397,392.932L691.623,397.662L688.429,398.764L690.479,401.537L695.25,402.637ZM732.463,428.543L734.818,426.637L741.9,424.824L750.387,423.914L754.421,424.807L757.524,424.01L760.853,426.45L756.495,429.341L748.383,431.17L743.178,431.403L741.86,430.005L738.37,429.29L733.372,429.754Z" fill="#bfdbfe" stroke="#2563eb" stroke-width="1.5" vector-effect="non-scaling-stroke" fill-opacity="1" stroke-opacity="1"></path><path class="state transition-colors duration-200 cursor-pointer" d="M597.559,463.775L594.653,461.134L594.447,458.362L595.697,456.817L596.143,458.238ZM669.672,529.693L668.538,532.067L667.151,534.008L665.588,534.274L662.239,537.68L657.682,546.296L655.103,549.015L651.341,550.805L648.43,555.816L643.795,557.427L642.338,556.45L632.502,561.156L627.922,563.768L624.55,567.358L622.588,572.777L623.722,573.754L627.721,573.552L630.251,571.5L630.798,574.331L632.926,575.988L630.194,577.721L624.824,579.289L620.127,581.595L617.521,585.637L612.655,585.274L608.18,586.553L604.324,591.125L604.078,593.192L598.877,596.445L598.117,600L596.492,598.45L593.37,599.84L590.905,599.015L590.713,595.541L597.494,593.656L597.29,591.251L595.35,591.466L596.163,583.526L598.296,582.009L601.769,576.808L599.444,566.687L600.223,562.831L602.602,558.114L600.655,552.881L596.241,549.574L600.217,548.87L601.487,552.381L604.637,552.092L603.592,554.954L605.355,554.359L606.086,557.499L607.464,555.239L614.994,557.118L615.408,553.755L613.064,552.767L615.227,551.106L617.841,551.641L612.757,547.649L612.799,544.762L609.576,544.677L603.472,537.912L599.397,538.736L594.199,536.993L589.127,538.223L586.489,537.916L580.504,539.144L570.921,538.717L572.443,540.031L571.163,542.485L568.107,537.759L568.374,536.237L563.505,536.863L563.087,531.911L560.555,530.759L561.666,525.856L556.675,522.071L557.574,517.527L556.677,516.887L551.928,518.345L547.702,518.164L545.173,515.878L542.401,510.104L540.486,507.598L537.558,507.475L532.26,508.748L524.898,506.484L522.645,506.814L524.383,509.262L525.703,508.197L529.341,509.311L525.655,509.893L523.735,512.42L520.359,514.381L522.469,511.12L520.782,509.082L519.253,516.014L518.109,513.424L514.49,515.68L513.866,520.512L511.473,522.562L507.672,522.68L505.649,521.354L499.752,522.091L498.317,520.276L493.634,523.451L490.91,522.731L487.354,519.525L484.102,521.216L481.391,516.912L475.46,515.806L470.673,517.668L469.507,515.906L466.018,515.83L461.385,513.658L460.16,506.672L456.963,505.584L456.406,455.679L468.286,443.189L477.385,431.192L486.762,418.545L496.866,404.822L504.079,394.922L509.553,398.873L512.28,399.912L516.2,405.184L521.182,406.127L527.089,408.26L532.078,409.227L534.531,411.405L537.026,411.952L536.889,413.771L538.756,412.68L541.65,412.9L546.907,410.753L549.312,411.443L560.876,410.988L562.162,414.942L561.768,421.61L562.083,423.839L564.159,425.76L565.874,429.146L565.756,432.197L567.473,436.616L566.666,437.575L566.905,441.281L574.731,447.17L575.018,449.174L577.662,451.685L581.279,452.379L585.529,455.653L588.111,460.295L591.19,460.463L594.978,462.096L597.648,464.122L609.8,511.62L609.625,513.404L612.4,518.228L618.884,524.83L622.324,526.976L633.017,526.267L641.504,529.905L642.701,528.22L645.507,531.867L648.931,532.47L651.625,530.998L653.771,532.041L658.899,527.722L664.754,524.571L667.642,524.873L667.988,528.728ZM594.056,546.017L584.629,544.051L576.268,544.232L577.299,542.429L580.089,543.053L582.719,541.475L583.673,543.443L588.196,539.906L589.937,542.011L591.296,539.736L593.568,542.092L595.583,542.391Z" fill="#EBE9FC" stroke="#010104" stroke-width="0.5" vector-effect="non-scaling-stroke" fill-opacity="1" stroke-opacity="1"></path><path class="state transition-colors duration-200 cursor-pointer" d="M762.507,477.343L761.638,478.211L761.469,480.419L760.376,482.833L758.695,480.771L758.514,485.363L754.444,490.222L750.604,496.267L748.883,496.3L746.637,500.294L745.583,499.588L742.367,502.671L741.064,501.205L737.394,503.328L735.513,502.326L734.455,498.738L729.36,497.014L728.442,494.57L721.727,480.303L716.285,477.873L710.773,482.753L708.804,481.967L712.526,478.034L713.332,475.765L711.205,470.786L713.151,468.794L717.522,466.736L720.161,467.503L724.322,463.559L727.898,460.648L728.911,461.159L733.915,460.385L737.172,462.664L739.847,458.901L744.928,456.847L744.5,453.008L745.85,455.422L744.254,458.952L745.079,461.707L744.703,466.563L743.237,469.125L748.078,466.601L748.745,469.647L756.599,476.337L764.095,474.377Z" fill="#EBE9FC" stroke="#010104" stroke-width="0.5" vector-effect="non-scaling-stroke" fill-opacity="1" stroke-opacity="1"></path><path class="state transition-colors duration-200 cursor-pointer is-selected" d="M761.469,480.419L761.638,478.211L762.507,477.343L765.342,477.484L768.16,476.044L771.196,477.089L772.289,475.114L777.112,473.91L779.307,474.491L782.24,468.246L783.796,470.427L786.903,470.183L787.757,468.571L791.303,470.507L790.345,472.678L794.576,470.488L794.361,472.656L789.455,476.273L787.673,480.577L784.399,483.605L780.698,489.542L779.452,488.421L778.898,491.285L775.859,492.303L777.541,494.647L769.836,497.214L771.476,500.755L769.826,509.437L768.097,512.923L766.097,513.591L766.527,515.29L763.588,517.918L759.688,514.732L758.133,516.719L755.067,512.577L754.338,508.728L755.455,504.652L753.875,505.023L760.752,492.33L764.333,487.472L765.63,490.356L769.439,484.986L773.017,482.171L770.694,482.871L761.579,487.33L758.937,490.189L758.463,488.66ZM791.404,463.492L790.239,465.442L794.277,464.608L793.581,463.259L794.792,458.939L792.917,461.963L791.878,461.453L792.432,456.404L793.405,454.196L798.662,453.689L800.171,455.461L797.583,463.409L793.738,468.166L789.758,469.302L787.671,468.06L784.463,464.319L785.407,456.844L784.72,451.293L785.276,447.034L787.26,446.057L790.611,450.942L791.259,456.541L792.412,455.499L791.277,459.91Z" fill="#bfdbfe" stroke="#2563eb" stroke-width="1.5" vector-effect="non-scaling-stroke" fill-opacity="1" stroke-opacity="1"></path><path class="state transition-colors duration-200 cursor-pointer" d="M773.364,471.624L771.438,471.301L770.901,469.388L768.251,471.661L764.622,472.312L762.477,470.58L758.916,472.262L757.543,469.844L754.462,470.093L755.588,463.099L756.671,467.233L762.365,469.612L762.146,467.88L766.906,468.057L772.749,463.667L777.643,461.258L774.979,464.358L776.107,470.242Z" fill="#EBE9FC" stroke="#010104" stroke-width="0.5" vector-effect="non-scaling-stroke" fill-opacity="1" stroke-opacity="1"></path><path class="state transition-colors duration-200 cursor-pointer" d="M256.44,311.587L163.252,255.993L163.197,254.616L166.01,251.883L162.99,249.767L159.516,249.731L158.213,246.741L156.916,247.058L155.263,243.829L239.718,140.125L242.322,143.142L243.766,143.904L245.88,147.515L245.72,149.345L246.892,155.079L248.995,160.092L250.646,162.52L251.856,162.72L242.029,176.728L241.808,179.399L240.639,181.837L238.513,183.676L237.308,186.086L248.176,193.403L247.131,193.007L246.893,196.028L245.988,196.782L245.804,199.48L242.814,201.774L243.843,202.719L241.512,205.015L241.91,207.448L244.995,208.074L243.859,209.104L246.818,209.142L247.218,210.849L245.372,211.374L245.37,215.745L240.668,218.045L239.434,219.223L240.418,221.986L237.262,224.334L239.387,226.958L240.052,230.257L238.285,231.6L241.169,231.889L242.181,233.176L241.082,240.048L243.248,244.424L242.499,245.286L242.562,249.046L239.706,250.066L239.741,253.809L240.971,254.771L238.514,257.036L238.38,260.942L239.327,263.554L237.398,265.109L237.085,268.23L238.815,270.115L240.534,270.042L241.007,277.362L242.466,280.915L244.498,282.758L243.123,288.659L241.721,292.234L247.251,294.664L248.563,293.8L251.471,296.968L257.128,296.772L256.821,299.481L255.283,300.454Z" fill="#EBE9FC" stroke="#010104" stroke-width="0.5" vector-effect="non-scaling-stroke" fill-opacity="1" stroke-opacity="1"></path></g></svg>